<?xml version="1.0" standalone="no"?>
<!DOCTYPE svg PUBLIC "-//W3C//DTD SVG 20010904//EN"
 "http://www.w3.org/TR/2001/REC-SVG-20010904/DTD/svg10.dtd">
<svg version="1.0" xmlns="http://www.w3.org/2000/svg"
 width="1077.000000pt" height="1342.000000pt" viewBox="0 0 1077.000000 1342.000000"
 preserveAspectRatio="xMidYMid meet">
<metadata>
Created by potrace 1.16, written by Peter Selinger 2001-2019
</metadata>
<g transform="translate(0.000000,1342.000000) scale(0.100000,-0.100000)"
fill="#000000" stroke="none">
<path d="M10737 10333 c-15 -71 -34 -159 -42 -198 -16 -72 -71 -319 -131 -575
-55 -242 -69 -319 -59 -328 6 -4 67 -6 138 -4 l127 4 0 614 c0 338 -1 614 -3
614 -2 0 -16 -57 -30 -127z"/>
<path d="M9672 9876 c-12 -26 -15 -27 -61 -21 -29 4 -65 2 -90 -6 -38 -11 -41
-14 -41 -49 0 -49 14 -59 84 -58 57 2 59 2 75 37 9 20 25 48 34 63 10 15 17
35 15 44 -2 14 -6 11 -16 -10z"/>
<path d="M6306 9198 c-25 -19 -29 -20 -37 -5 -5 9 -16 14 -24 11 -21 -9 -19
-24 4 -24 26 0 50 -58 30 -71 -8 -5 -20 -9 -27 -9 -18 0 -66 26 -80 43 -14 17
-55 10 -90 -14 -19 -14 -22 -23 -17 -50 5 -29 1 -39 -29 -71 -31 -32 -39 -36
-69 -31 -40 6 -53 -7 -35 -38 12 -19 20 -20 75 -16 36 3 66 0 72 -6 7 -7 21 2
46 29 20 21 42 38 48 36 6 -2 22 -1 35 3 19 5 22 8 12 20 -7 8 -17 15 -22 15
-6 0 -23 11 -39 24 -18 15 -36 22 -49 19 -27 -7 -25 10 4 42 22 24 25 24 40
10 9 -9 16 -30 16 -46 0 -30 11 -35 66 -30 12 1 27 -6 34 -14 11 -14 10 -17
-8 -22 -33 -8 -27 -33 8 -33 21 0 42 11 71 40 23 22 47 40 54 40 7 0 18 7 25
15 13 16 59 10 72 -9 5 -6 8 -7 8 -1 0 6 7 1 15 -9 13 -18 16 -18 40 -2 14 9
25 21 25 26 0 17 26 11 44 -9 14 -15 24 -17 52 -11 48 11 51 16 25 44 -46 49
-111 59 -111 16 0 -17 -5 -20 -34 -16 -52 6 -80 24 -66 42 16 18 -2 26 -51 22
-28 -3 -34 0 -35 17 -1 11 -2 26 -3 33 -2 20 -63 13 -95 -10z"/>
<path d="M3683 9108 c-12 -6 -29 -31 -38 -57 -24 -64 -36 -71 -127 -71 -62 0
-89 -5 -135 -26 -32 -14 -74 -27 -93 -29 -89 -9 -140 -18 -140 -26 0 -5 4 -9
10 -9 12 0 34 -40 26 -47 -12 -12 -66 20 -66 38 0 22 -6 23 -49 8 -38 -13 -42
-45 -7 -59 13 -5 27 -14 31 -19 15 -26 185 6 185 34 0 10 9 12 33 9 17 -3 43
-1 57 4 l25 10 -27 12 c-16 7 -28 17 -28 22 0 14 37 9 50 -7 18 -22 31 -19 67
15 37 35 42 36 58 13 17 -24 88 -18 125 9 23 17 37 20 74 15 27 -4 46 -3 46 3
0 5 6 7 14 4 18 -7 27 8 28 46 1 17 6 30 12 30 6 0 22 12 35 26 l24 25 -23 21
c-19 18 -27 20 -49 11 -15 -5 -36 -6 -46 -2 -27 10 -46 10 -72 -3z"/>
<path d="M4256 9074 c11 -45 36 -72 73 -79 38 -7 91 -57 91 -85 0 -22 71 -87
105 -96 16 -4 25 -13 25 -26 0 -10 4 -17 9 -14 5 3 29 -12 53 -34 32 -28 48
-36 56 -28 7 7 22 1 51 -23 22 -19 41 -40 41 -46 0 -15 -16 -17 -24 -4 -7 11
-56 20 -73 14 -11 -4 -11 -8 -1 -21 7 -9 0 -6 -16 6 -19 15 -42 22 -65 21 -48
-1 -203 11 -213 17 -5 3 -12 -6 -18 -20 -11 -31 -20 -32 -50 -6 -33 29 -82 26
-122 -7 -18 -16 -35 -32 -36 -36 -2 -4 -14 -20 -27 -36 -13 -15 -26 -38 -30
-52 -5 -22 -2 -26 37 -36 24 -7 72 -15 108 -19 36 -3 83 -12 105 -20 22 -8 51
-14 65 -14 15 0 30 -4 35 -9 14 -12 61 -22 68 -14 4 3 1 13 -6 21 -10 13 -9
14 13 8 14 -5 34 -8 45 -9 22 0 135 30 143 38 3 3 -3 14 -13 25 -10 11 -16 22
-14 24 2 2 31 6 64 7 50 2 60 0 63 -15 6 -27 37 -15 40 16 3 27 3 27 23 7 10
-10 29 -19 42 -19 33 0 98 25 108 41 4 8 16 14 26 14 11 0 19 9 21 22 5 31
-34 63 -136 113 -46 23 -109 61 -140 85 -36 29 -67 45 -85 45 -20 0 -30 7 -37
25 -6 16 -14 23 -25 19 -10 -4 -15 0 -15 10 0 9 -7 16 -16 16 -9 0 -32 13 -50
30 -19 16 -40 27 -47 24 -8 -3 -20 2 -27 11 -7 8 -17 15 -23 15 -5 0 -15 8
-22 17 -8 11 -28 17 -56 18 -37 1 -44 4 -49 26 -3 13 -11 25 -18 25 -7 1 -16
2 -21 3 -5 0 -17 8 -26 17 -15 15 -15 14 -9 -12z"/>
<path d="M7478 8879 c-23 -12 -38 -27 -38 -38 0 -10 -7 -24 -15 -31 -13 -11
-18 -10 -29 5 -10 14 -17 15 -32 7 -10 -5 -48 -9 -83 -8 -46 2 -67 -2 -79 -13
-14 -15 -14 -16 4 -19 10 -2 23 -8 28 -12 12 -12 -4 -70 -20 -70 -8 0 -14 -4
-14 -9 0 -19 57 10 70 34 18 34 34 31 27 -5 -10 -48 30 -52 51 -5 12 26 7 35
-20 35 -34 0 -18 16 17 17 24 1 35 -3 35 -13 0 -8 4 -14 8 -14 13 0 39 23 46
40 3 8 4 0 3 -19 -3 -45 17 -51 38 -12 11 21 22 31 38 30 17 -1 18 -2 5 -6
-17 -4 -40 -60 -31 -75 7 -13 40 -9 53 7 7 8 25 15 40 15 15 0 33 7 40 15 7 8
20 15 29 15 10 0 12 -3 5 -8 -7 -4 -19 -25 -28 -46 -15 -37 -17 -38 -35 -22
-18 16 -19 15 -24 -16 -6 -42 -3 -44 28 -24 20 13 30 15 40 6 8 -7 19 -9 24
-6 5 4 14 -1 19 -9 6 -12 18 -14 51 -9 35 6 47 14 68 45 28 43 43 47 87 24 46
-24 55 -20 53 26 -1 27 -7 43 -17 47 -8 3 -29 16 -45 28 -32 24 -102 31 -179
18 -39 -6 -39 -6 -32 22 12 49 12 67 -1 71 -7 3 -17 -7 -23 -21 -5 -15 -17
-26 -28 -26 -27 0 -83 30 -77 41 10 15 -17 9 -57 -12z"/>
<path d="M7132 8763 c-10 -4 -9 -10 3 -30 11 -17 14 -28 7 -35 -7 -7 -12 -3
-17 11 -5 17 -10 19 -25 11 -11 -6 -16 -17 -13 -28 2 -10 -3 -25 -12 -32 -15
-12 -19 -12 -31 5 -8 10 -14 25 -14 32 0 16 -5 16 -30 1 -17 -11 -22 -10 -30
2 -15 23 -13 -15 2 -57 9 -24 18 -33 34 -33 12 0 24 -5 26 -12 6 -17 88 8 88
27 0 7 10 15 23 17 19 3 23 11 29 58 7 62 -3 78 -40 63z"/>
<path d="M2296 8739 c-27 -11 -58 -26 -70 -34 -11 -8 -30 -15 -41 -15 -22 0
-121 -91 -130 -121 -4 -10 -11 -19 -16 -19 -5 0 -9 -7 -9 -15 0 -9 9 -15 25
-15 14 0 25 5 25 10 0 6 6 10 14 10 9 0 16 12 18 28 3 26 5 27 63 27 33 1 65
4 72 8 6 4 22 3 35 -2 32 -12 58 3 58 33 0 21 6 25 43 28 23 3 47 1 53 -4 7
-5 16 -2 24 7 10 12 9 20 -4 40 -9 14 -21 25 -26 25 -6 0 -10 7 -10 15 0 22
-64 19 -124 -6z"/>
<path d="M2583 8699 c-6 -23 -12 -24 -40 -4 -23 16 -53 11 -53 -10 0 -17 35
-46 51 -43 9 2 14 -6 14 -22 0 -21 12 -32 70 -63 39 -22 77 -44 85 -51 22 -19
78 -36 116 -36 37 0 68 -35 44 -50 -18 -11 -8 -22 59 -66 34 -22 65 -51 72
-67 19 -46 68 -107 85 -107 8 0 12 -4 9 -10 -3 -5 -42 -10 -85 -10 -43 0 -82
-4 -85 -10 -3 -5 -22 -10 -41 -10 -42 0 -45 -16 -3 -25 45 -10 20 -29 -26 -21
-25 5 -39 14 -42 27 -4 13 -14 19 -35 19 -17 0 -27 -4 -23 -10 3 -5 -1 -10 -9
-10 -9 0 -24 19 -34 41 -11 25 -21 36 -24 28 -4 -11 -12 -10 -46 6 -23 11 -42
23 -42 28 0 4 -10 7 -22 7 -20 0 -20 -1 -5 -18 24 -27 21 -32 -18 -32 -22 0
-38 -6 -41 -15 -8 -19 -34 -20 -34 -1 0 23 -22 31 -32 12 -5 -9 -16 -16 -25
-16 -16 0 -26 8 -77 58 -29 28 -41 28 -60 0 -22 -30 -20 -61 4 -83 11 -10 20
-29 20 -42 0 -20 -4 -22 -25 -17 -20 5 -24 3 -19 -9 4 -11 25 -18 62 -22 32
-3 84 -13 116 -21 32 -9 72 -13 87 -10 36 7 87 -11 100 -36 8 -15 13 -17 24
-8 8 7 24 9 36 5 19 -6 21 -4 16 14 -4 18 -2 20 19 15 15 -4 24 -2 24 6 0 8 9
10 25 6 14 -3 36 -9 49 -12 21 -5 24 -3 19 14 -3 12 1 22 12 26 18 7 55 -9 55
-24 0 -15 51 -12 81 4 15 7 38 12 51 9 17 -3 35 4 57 23 27 23 36 25 51 16 22
-14 121 4 215 38 33 12 67 22 75 22 8 1 18 6 22 12 8 11 14 13 61 15 22 1 27
6 27 26 0 16 -6 25 -15 25 -8 0 -15 -6 -15 -14 0 -32 -34 -26 -75 14 -27 26
-50 40 -67 40 -39 0 -58 10 -58 31 0 10 -9 23 -21 29 -15 9 -18 15 -10 24 15
18 3 27 -18 14 -13 -8 -27 -5 -57 11 -52 28 -74 42 -98 64 -12 10 -36 17 -62
17 -37 0 -43 3 -54 30 -7 17 -17 30 -22 30 -5 0 -8 11 -6 24 3 26 -26 66 -49
66 -9 0 -12 -7 -7 -25 8 -33 0 -32 -48 9 -22 19 -53 38 -69 41 -16 4 -29 11
-29 16 0 5 -12 12 -27 15 -16 4 -57 22 -92 40 -59 30 -64 31 -68 13z"/>
<path d="M8630 8486 c-19 -18 -50 -41 -67 -50 -42 -21 -43 -50 -3 -71 25 -13
30 -22 30 -51 0 -27 5 -37 23 -44 l22 -9 -21 -6 c-18 -6 -20 -10 -10 -30 20
-43 90 -69 85 -32 -5 41 2 58 20 52 27 -8 71 5 71 21 0 18 44 18 59 0 8 -9 22
-11 44 -7 32 7 32 7 31 67 0 38 -7 71 -18 90 -28 48 -115 99 -100 59 11 -27
-24 -16 -46 15 -30 42 -74 41 -120 -4z"/>
<path d="M6025 8476 c-11 -6 -25 -17 -31 -25 -6 -8 -16 -11 -22 -7 -8 5 -12 0
-12 -13 0 -11 -6 -26 -14 -33 -12 -11 -12 -17 2 -41 17 -29 47 -33 47 -7 0 9
-8 14 -20 12 -18 -3 -18 -2 3 13 18 13 26 14 37 5 8 -6 19 -9 25 -5 5 3 10 -1
10 -9 0 -8 7 -19 16 -24 23 -13 -2 -29 -56 -35 -80 -10 -115 -20 -126 -36 -9
-12 -15 -13 -26 -4 -11 9 -20 9 -39 0 -13 -7 -39 -14 -58 -15 -18 -1 -41 -6
-50 -11 -9 -5 -51 -16 -94 -26 -42 -9 -80 -21 -83 -26 -3 -5 -19 -16 -35 -24
-27 -14 -31 -14 -46 0 -14 15 -18 14 -42 -9 -15 -14 -32 -26 -39 -26 -7 0 -12
-4 -12 -10 0 -13 87 -13 95 1 5 7 13 5 25 -6 23 -21 191 -19 183 2 -3 7 0 13
6 13 6 0 11 -6 11 -12 0 -21 226 -71 291 -64 30 3 54 5 54 6 0 0 -2 21 -4 46
-2 29 0 44 7 40 5 -3 26 -8 47 -12 27 -4 42 -1 56 12 17 16 19 16 19 1 0 -10
-6 -16 -12 -14 -7 1 -12 -4 -10 -11 3 -17 -28 -28 -38 -12 -4 7 -13 9 -19 5
-9 -5 -9 -11 1 -22 10 -12 24 -14 68 -8 70 9 110 13 136 14 13 1 25 10 29 24
6 19 8 19 12 5 5 -20 23 -22 74 -8 35 10 39 16 40 68 1 28 -43 68 -84 76 -33
7 -59 36 -67 75 -3 16 -16 28 -40 37 -19 7 -31 13 -26 13 15 2 -33 38 -67 51
-17 7 -48 20 -67 30 -28 14 -39 15 -55 6z"/>
<path d="M3860 8280 c0 -23 -1 -23 -33 -11 -14 6 -29 6 -38 0 -10 -6 -10 -9
-1 -9 7 0 11 -11 10 -29 -2 -25 -5 -28 -20 -20 -11 6 -18 6 -18 0 0 -13 26
-21 66 -21 27 0 34 -4 34 -20 0 -20 9 -24 42 -21 9 1 22 -7 28 -18 6 -12 17
-21 25 -21 8 0 15 -4 15 -9 0 -5 18 -11 41 -15 29 -5 43 -12 46 -26 3 -11 9
-17 15 -14 13 8 38 -15 32 -31 -4 -8 6 -20 23 -29 16 -8 36 -22 43 -31 11 -13
24 -15 59 -11 l46 5 -43 -20 c-39 -18 -45 -19 -86 -5 -24 8 -66 18 -94 22 -44
5 -51 4 -61 -14 -14 -26 -59 -34 -93 -16 -29 15 -77 10 -90 -10 -4 -5 -23 -10
-42 -10 -42 0 -45 -7 -12 -22 16 -8 28 -8 34 -2 15 15 31 1 25 -22 -3 -13 0
-20 8 -20 9 0 10 -3 3 -10 -11 -11 -64 6 -64 20 0 10 -81 43 -88 35 -3 -3 0
-10 8 -15 17 -10 16 -12 -29 -27 -22 -8 -40 -9 -52 -3 -25 14 -32 12 -26 -4 3
-8 -1 -17 -9 -20 -28 -11 -37 -7 -24 9 17 21 4 32 -20 17 -27 -17 -30 -16 -30
14 0 20 -4 25 -16 20 -9 -3 -17 -6 -20 -6 -2 0 1 -11 6 -24 14 -38 3 -61 -32
-63 -47 -4 -96 31 -100 70 -4 41 -34 50 -44 12 -6 -25 -8 -26 -63 -19 -52 6
-60 4 -89 -21 -18 -15 -32 -33 -32 -40 0 -8 -7 -21 -16 -29 -14 -15 -14 -16 0
-16 20 0 21 -19 1 -26 -21 -9 -7 -27 17 -21 11 3 18 1 16 -5 -7 -20 37 -56 72
-60 29 -2 35 -7 34 -25 -1 -27 8 -29 41 -7 18 12 35 14 65 9 22 -4 46 -3 53 3
7 5 21 12 32 16 16 6 18 5 8 -5 -18 -18 -16 -40 4 -54 28 -21 6 -35 -47 -30
-39 4 -51 1 -59 -13 -7 -11 -10 -12 -11 -4 0 25 -25 6 -30 -24 -5 -24 -1 -31
21 -41 34 -14 104 1 135 29 13 12 24 15 28 10 3 -6 -2 -13 -11 -15 -10 -3 -1
-5 19 -6 20 0 40 4 43 9 4 6 11 8 16 5 5 -4 9 -1 9 5 0 6 10 8 25 4 14 -3 25
-2 25 4 0 5 22 12 48 14 26 3 60 13 76 23 32 21 36 23 86 31 19 3 44 9 55 14
32 14 95 20 95 9 0 -5 -10 -14 -22 -19 -19 -7 -15 -9 22 -10 25 0 83 -10 130
-22 93 -22 192 -27 198 -9 2 6 8 11 14 11 15 0 121 53 129 64 4 5 19 6 33 2
15 -4 26 -2 26 4 0 5 16 10 36 10 19 0 44 5 55 11 11 6 45 10 75 10 30 0 54 5
54 10 0 5 -12 9 -27 9 -25 1 -26 2 -10 11 10 6 26 9 36 6 10 -2 26 2 36 9 25
19 41 18 25 -1 -8 -9 -9 -15 -2 -15 6 0 14 5 17 10 3 6 15 10 25 10 10 0 31 5
47 12 15 6 37 13 47 15 11 2 25 8 32 14 6 5 16 9 20 8 22 -4 44 2 44 12 0 6
-9 8 -21 4 -15 -5 -22 -2 -26 14 -3 12 -10 21 -16 21 -5 0 -25 11 -43 25 -18
14 -43 25 -56 25 -13 0 -36 9 -53 20 -19 13 -39 18 -56 15 -27 -6 -158 41
-190 68 -13 11 -19 12 -23 4 -3 -8 -10 -6 -20 7 -9 11 -16 17 -16 13 0 -12
-65 16 -90 38 -14 13 -35 26 -47 30 -16 4 -23 14 -23 31 0 17 -8 27 -24 33
-13 5 -26 17 -29 25 -4 9 -13 16 -21 16 -7 0 -16 9 -19 20 -3 11 -13 20 -22
20 -9 0 -31 11 -49 25 -18 14 -36 25 -41 25 -13 0 -134 60 -140 70 -9 14 -42
12 -49 -2 -5 -10 -7 -10 -12 0 -10 20 -44 15 -44 -8z"/>
<path d="M1613 8182 c-10 -11 -26 -21 -35 -25 -11 -4 -15 -13 -11 -26 5 -18 1
-21 -28 -22 -32 0 -31 -2 21 -20 30 -11 62 -22 71 -25 10 -3 26 -1 37 5 32 17
72 -2 65 -29 -3 -13 0 -25 7 -30 19 -12 42 0 37 20 -3 13 1 16 19 12 34 -6 61
5 46 20 -7 7 -12 20 -12 29 0 11 -11 19 -35 23 -25 5 -35 12 -35 25 0 23 -51
45 -85 37 -18 -5 -25 -2 -25 9 0 20 -15 19 -37 -3z"/>
<path d="M7380 8151 c0 -15 -48 -22 -74 -9 -21 9 -32 8 -60 -7 -19 -10 -39
-29 -45 -42 -6 -13 -14 -23 -18 -22 -41 7 -8 -26 46 -44 37 -13 42 -13 57 4
11 12 14 27 10 43 -6 25 -6 25 44 19 36 -4 50 -2 50 6 0 8 11 5 28 -8 22 -15
32 -17 40 -9 9 9 5 16 -16 30 -15 10 -23 18 -18 18 5 0 3 7 -4 15 -14 16 -40
20 -40 6z"/>
<path d="M1155 8080 c-3 -5 -21 -10 -39 -10 -51 0 -78 -42 -36 -55 30 -10 24
-21 -24 -43 -24 -12 -46 -28 -49 -37 -4 -8 -18 -20 -31 -25 -29 -11 -51 -43
-61 -87 -6 -29 -4 -32 32 -43 21 -7 41 -19 46 -26 4 -7 22 -18 40 -23 17 -5
47 -14 65 -20 29 -9 32 -8 22 4 -7 8 -19 15 -26 15 -32 0 -11 19 24 22 30 2
36 7 34 22 -2 11 1 17 10 14 7 -3 14 -19 16 -36 2 -20 10 -33 23 -37 10 -4 19
-11 19 -17 0 -5 6 -8 14 -5 20 8 28 -4 12 -17 -8 -6 -24 -29 -35 -51 l-21 -40
21 -3 c12 -2 26 1 32 7 6 6 41 11 79 11 57 0 70 3 88 22 13 15 17 24 9 27 -6
2 -14 -1 -18 -6 -11 -18 -36 -20 -64 -6 -15 8 -38 12 -50 9 -16 -4 -15 -2 4 6
22 9 26 18 28 56 2 55 3 57 30 42 26 -14 26 -24 0 -49 l-20 -19 22 -16 c15
-10 26 -12 35 -6 6 6 19 7 29 4 14 -6 16 -3 10 15 -5 16 -1 27 12 36 11 9 13
14 5 15 -8 0 -11 11 -9 35 3 25 0 38 -11 44 -13 8 -12 13 11 41 40 47 36 58
-20 49 -121 -19 -133 -22 -133 -35 0 -23 -45 -16 -74 11 -14 13 -26 28 -26 32
0 13 86 44 103 37 9 -3 14 -10 11 -15 -3 -5 2 -9 10 -9 8 0 19 7 24 17 8 13
19 15 56 10 30 -4 45 -3 41 3 -4 6 1 13 9 16 18 7 22 34 5 34 -7 0 -17 -7 -23
-16 -17 -23 -66 1 -66 32 0 18 -7 24 -35 30 -19 3 -39 12 -43 19 -9 16 -108
29 -117 15z"/>
<path d="M7459 8019 c-22 -24 -31 -28 -51 -20 -17 6 -28 4 -42 -10 -17 -17
-18 -19 -2 -25 15 -6 15 -7 -1 -21 -16 -13 -15 -13 16 -7 38 7 127 49 136 64
12 20 25 9 25 -20 0 -27 -3 -30 -23 -25 -17 5 -32 -1 -54 -22 -27 -25 -72 -50
-194 -109 -27 -13 -50 -16 -92 -11 -43 4 -57 2 -61 -9 -3 -8 1 -17 9 -20 8 -4
13 -15 11 -27 -4 -22 -8 -24 -37 -12 -10 3 -24 -1 -34 -12 -17 -17 -16 -18 16
-26 19 -5 53 -7 77 -4 23 2 42 0 42 -5 0 -5 8 -7 18 -3 12 3 28 -4 45 -20 20
-21 31 -24 54 -19 25 7 27 6 14 -9 -12 -15 -11 -17 8 -17 14 0 21 6 21 19 0
37 60 42 79 7 10 -18 26 -25 79 -34 37 -6 99 -16 137 -23 89 -15 111 -14 158
2 40 15 49 29 17 29 -11 0 -20 5 -20 10 0 6 -12 10 -26 10 -21 0 -25 4 -22 23
2 15 11 23 28 25 14 2 30 8 36 13 8 6 14 4 18 -6 6 -18 33 -20 38 -3 5 14 148
21 148 7 0 -5 12 -9 26 -9 18 0 28 6 31 21 4 12 17 22 35 26 15 3 31 10 34 14
3 5 17 9 31 9 22 0 24 -3 19 -26 -7 -26 -6 -26 31 -20 54 10 93 26 93 40 0 8
-12 11 -32 9 -31 -4 -32 -3 -14 11 19 15 19 16 2 16 -10 0 -29 11 -42 25 -16
18 -34 25 -59 25 -35 0 -41 -8 -36 -47 3 -25 -22 -13 -64 31 -33 33 -57 47
-95 56 -51 12 -52 13 -48 46 3 29 1 34 -17 34 -14 0 -26 10 -34 26 l-12 27
-115 -7 c-94 -5 -119 -3 -138 9 -13 9 -31 13 -40 9 -9 -3 -16 -2 -16 3 0 5
-19 9 -41 10 -35 2 -47 -3 -70 -28z m183 -173 c5 -9 14 -16 21 -16 7 0 24 -7
39 -14 38 -20 70 -17 62 6 -4 14 -1 16 13 11 10 -4 21 -11 25 -17 5 -8 17 -7
39 1 18 7 35 11 37 9 6 -6 -54 -36 -72 -36 -8 0 -24 -10 -36 -22 l-20 -22 -23
22 c-18 17 -31 21 -55 16 -18 -4 -32 -10 -32 -14 0 -9 25 -31 52 -45 20 -10
23 -34 3 -26 -5 2 -27 6 -48 9 -33 4 -39 1 -44 -17 -9 -35 -33 -25 -33 13 0
36 -24 56 -44 36 -7 -7 -5 -10 7 -10 9 0 17 -4 17 -10 0 -5 -7 -10 -15 -10 -8
0 -15 -4 -15 -10 0 -5 7 -10 15 -10 8 0 15 -7 15 -16 0 -11 -6 -15 -20 -11
-12 3 -23 -1 -29 -10 -7 -13 -12 -13 -32 -2 l-24 13 28 10 c38 14 34 26 -8 19
-24 -4 -35 -2 -35 6 0 7 5 9 10 6 17 -10 32 5 20 20 -8 10 -8 15 1 21 7 4 15
2 17 -4 5 -15 32 -16 32 -2 0 6 11 15 25 20 14 5 25 14 25 20 0 6 -9 6 -26 0
-36 -14 -47 -12 -40 5 10 26 -19 17 -47 -15 -27 -30 -60 -39 -72 -20 -3 6 5
14 20 20 14 5 28 16 31 25 3 8 10 12 15 10 13 -8 86 32 93 51 5 13 15 16 53
11 28 -3 50 -11 55 -21z"/>
<path d="M9367 7962 c-23 -25 -21 -32 8 -32 30 0 34 -25 5 -33 -31 -8 -23 -25
11 -23 25 1 32 -3 35 -21 5 -27 -21 -34 -59 -16 -26 13 -47 11 -47 -5 0 -4 20
-14 45 -21 93 -27 75 -60 -30 -56 -33 2 -78 6 -101 10 -37 6 -42 5 -47 -14 -4
-16 0 -22 16 -25 160 -32 165 -34 193 -82 10 -15 14 -17 25 -6 18 17 29 15 29
-6 0 -10 5 -23 11 -29 16 -16 -37 -46 -68 -38 -14 3 -31 1 -39 -6 -7 -6 -21
-8 -30 -5 -9 4 -22 3 -28 -2 -6 -5 -31 -14 -56 -21 -25 -7 -55 -17 -68 -22
-13 -5 -32 -9 -43 -9 -11 0 -22 -7 -25 -15 -4 -8 -12 -15 -18 -15 -18 0 -113
-47 -121 -60 -3 -6 -11 -7 -18 -3 -16 10 -120 3 -135 -10 -7 -6 -11 -20 -8
-31 3 -11 0 -26 -6 -33 -6 -7 -7 -13 -3 -13 4 0 1 -8 -6 -17 -12 -15 -12 -16
4 -10 11 4 34 0 53 -9 23 -11 38 -13 47 -7 6 6 26 13 42 16 17 4 24 4 18 1
-18 -8 -16 -24 3 -24 13 0 15 7 11 29 -7 31 17 51 37 31 5 -5 18 -10 28 -10
25 0 22 -11 -9 -37 l-28 -23 52 6 c46 6 51 4 50 -12 -1 -11 4 -19 11 -18 6 1
28 2 47 3 19 0 35 6 35 11 0 7 -13 9 -33 5 -28 -6 -36 -3 -50 18 -14 22 -14
27 -1 46 22 30 43 26 51 -9 7 -37 33 -54 56 -37 9 7 17 19 19 27 3 15 49 40
74 40 27 0 14 -30 -15 -36 -17 -4 -33 -16 -40 -30 -6 -13 -15 -24 -21 -24 -6
0 -9 -4 -5 -9 9 -15 180 -4 180 11 0 7 -8 12 -17 12 -10 -1 -15 2 -12 7 3 5
-5 13 -17 17 l-22 9 20 20 c26 26 37 59 23 68 -15 10 -12 45 5 52 9 3 21 -1
28 -9 18 -23 87 -59 98 -52 6 4 3 14 -7 25 -9 10 -12 19 -6 19 12 0 57 -59 57
-75 0 -5 14 -16 30 -25 17 -8 33 -19 36 -24 4 -5 15 -6 25 -2 16 7 14 10 -15
25 -22 12 -29 20 -20 23 19 6 89 -23 89 -37 0 -7 7 -18 15 -25 12 -10 13 -16
4 -27 -7 -7 -9 -17 -5 -21 4 -4 16 4 26 18 13 17 20 20 20 10 0 -8 14 -21 30
-29 42 -18 107 6 102 38 -3 22 12 29 23 11 3 -5 16 -10 28 -10 16 0 12 -6 -21
-27 l-42 -28 22 -17 c16 -12 25 -13 30 -5 5 8 13 8 30 0 13 -6 29 -13 35 -15
10 -2 9 -9 -2 -31 -13 -25 -13 -26 5 -17 10 5 20 15 22 21 11 34 94 12 85 -22
-3 -10 -1 -19 5 -19 5 0 6 -5 2 -11 -3 -6 -21 -9 -40 -7 -48 6 -23 -20 28 -28
28 -5 38 -11 34 -21 -5 -11 2 -12 31 -7 33 6 36 5 31 -13 -6 -23 23 -46 45
-37 8 3 23 -6 35 -20 11 -14 25 -26 31 -26 6 0 11 -4 11 -10 0 -5 7 -10 15
-10 20 0 19 10 -2 27 -16 12 -15 12 9 2 23 -10 25 -14 15 -30 -14 -23 -47 -25
-47 -3 0 14 -3 14 -15 4 -9 -7 -29 -10 -48 -7 -32 5 -32 5 -4 -6 15 -6 27 -19
27 -28 0 -10 5 -19 11 -21 7 -2 3 -18 -11 -43 -14 -25 -18 -41 -11 -43 6 -2
11 -11 11 -20 1 -22 42 -69 66 -75 17 -4 17 -5 2 -6 -10 0 -18 -5 -18 -11 0
-5 6 -7 14 -4 8 3 17 1 21 -5 4 -7 -8 -11 -34 -11 -37 0 -53 -11 -33 -23 4 -2
2 -2 -5 -1 -7 2 -15 -1 -18 -6 -4 -6 -13 -10 -21 -10 -8 0 -13 4 -10 9 3 5
-13 12 -37 16 -63 11 -157 13 -157 3 0 -5 -5 -6 -10 -3 -6 4 -8 15 -5 25 4 12
-1 19 -16 23 -32 8 -46 -3 -24 -20 18 -12 18 -13 -3 -13 -12 0 -22 6 -22 14 0
20 -27 39 -42 29 -7 -4 -13 -19 -13 -33 0 -16 -6 -25 -15 -25 -9 0 -15 9 -15
25 0 30 -17 39 -25 14 -6 -17 -7 -17 -13 0 -4 10 -3 24 2 30 11 13 2 31 -16
32 -38 3 -42 5 -37 19 4 9 0 15 -10 15 -9 0 -16 -7 -16 -15 0 -8 -5 -15 -11
-15 -6 0 -9 -7 -5 -15 9 -23 -12 -18 -38 10 -14 14 -34 25 -50 25 -28 0 -35
17 -11 26 8 4 13 10 10 14 -7 11 22 33 34 26 5 -3 20 -2 33 3 12 6 16 10 8 10
-8 1 -27 8 -42 15 -26 14 -29 13 -42 -6 -12 -16 -22 -20 -48 -15 -23 3 -40 0
-56 -13 -28 -23 -28 -30 1 -31 21 0 21 -1 2 -8 -11 -5 -20 -14 -20 -22 -1 -19
-51 -13 -93 12 -18 10 -39 19 -47 19 -7 0 -15 4 -17 9 -1 5 -11 3 -22 -4 -18
-14 -18 -15 8 -26 14 -7 26 -16 26 -21 0 -4 7 -8 16 -8 12 0 15 -6 11 -20 -4
-17 -2 -20 14 -15 11 4 19 2 19 -4 0 -6 -4 -11 -10 -11 -16 0 -11 -17 7 -24 9
-4 21 -2 26 3 6 6 16 6 26 1 57 -33 139 -52 126 -30 -4 6 -11 8 -16 5 -5 -4
-9 -2 -9 4 0 18 20 22 35 7 19 -19 19 -36 0 -36 -26 0 -16 -18 13 -23 51 -9
92 -7 92 3 0 6 -5 8 -11 4 -6 -3 -15 0 -20 7 -11 18 19 30 44 17 18 -9 24 -38
7 -38 -5 0 -10 -6 -10 -14 0 -8 -10 -17 -22 -19 -23 -4 -23 -4 1 -6 20 -1 22
-3 11 -16 -7 -9 -10 -19 -6 -23 4 -4 13 0 19 9 7 9 18 14 25 12 6 -3 12 3 12
12 0 12 -6 15 -22 10 -20 -5 -21 -5 -5 5 9 6 15 15 12 20 -3 5 -1 11 5 15 5 3
10 0 10 -9 0 -12 45 -30 65 -27 11 2 65 -30 65 -38 0 -5 14 -12 30 -16 36 -8
63 10 55 36 -3 9 -2 20 4 23 5 3 7 15 4 26 -4 14 0 20 11 20 9 0 16 -4 16 -10
0 -5 15 -12 33 -15 41 -8 66 -40 36 -48 -12 -3 -19 0 -19 8 0 8 -5 17 -11 21
-8 4 -9 0 -4 -15 4 -15 2 -21 -8 -21 -14 0 -24 -13 -25 -35 0 -5 5 -9 13 -7 7
1 16 -2 20 -8 3 -5 1 -10 -4 -10 -6 0 -11 -7 -11 -15 0 -14 12 -20 33 -16 18
3 49 -22 58 -46 12 -32 8 -36 -24 -24 -17 7 -28 7 -32 1 -4 -6 2 -10 12 -10
10 0 23 -11 29 -23 10 -23 9 -24 -28 -23 -21 0 -38 4 -38 8 0 4 5 8 11 8 5 0
7 4 4 10 -7 12 -66 1 -83 -17 -15 -15 -8 -33 14 -33 8 0 14 -4 14 -10 0 -5 -6
-10 -14 -10 -8 0 -17 -8 -21 -17 -6 -16 -8 -16 -25 5 -25 31 -76 30 -105 -2
-13 -14 -20 -27 -17 -30 15 -16 -23 -3 -46 15 -15 11 -28 16 -30 11 -2 -6 -14
-5 -30 4 -34 18 -78 18 -85 1 -3 -9 -19 -12 -45 -10 -39 3 -41 2 -39 -24 3
-32 36 -53 84 -53 17 0 34 -4 38 -10 8 -12 56 6 72 27 11 15 13 15 19 -1 8
-22 -21 -86 -38 -86 -7 0 -23 -3 -35 -6 -18 -5 -22 -1 -25 22 -3 26 -8 30 -51
36 -27 3 -55 12 -63 18 -8 7 -14 9 -15 4 -7 -74 -5 -79 33 -82 62 -5 81 -62
21 -62 -15 0 -23 -4 -18 -8 6 -4 15 -20 20 -37 8 -21 20 -32 45 -40 19 -6 44
-15 55 -21 33 -19 89 -28 80 -14 -6 9 -3 9 14 1 11 -6 31 -9 45 -5 13 3 27 1
30 -5 4 -6 19 -11 34 -12 23 0 22 -2 -13 -14 -36 -12 -37 -13 -12 -14 36 -1
88 -28 86 -44 -1 -7 -1 -22 0 -35 1 -20 3 -21 21 -10 17 11 23 9 42 -9 l22
-23 -22 5 c-12 2 -25 6 -30 9 -12 7 -41 -19 -53 -50 -10 -27 -12 -28 -20 -9
-7 15 -8 12 -4 -13 2 -18 14 -45 26 -61 41 -56 -11 -88 -123 -75 -34 4 -63 2
-70 -3 -23 -18 -57 -21 -69 -7 -6 8 -23 14 -38 14 -14 0 -37 9 -51 20 -14 11
-31 20 -39 20 -8 0 -19 7 -26 16 -9 13 -16 14 -30 7 -12 -7 -14 -13 -6 -17 17
-11 13 -26 -6 -26 -16 -1 -16 -2 2 -16 18 -13 21 -13 29 6 14 31 38 26 30 -7
-8 -35 -20 -48 -28 -34 -4 6 -26 11 -50 11 -23 0 -47 5 -54 12 -16 16 -15 7 4
-30 8 -18 20 -32 25 -32 5 0 9 -11 9 -25 0 -14 5 -25 10 -25 6 0 10 -7 10 -16
0 -13 -3 -14 -14 -5 -8 7 -28 11 -45 9 -26 -3 -28 -5 -17 -20 7 -10 26 -19 43
-21 16 -2 35 -7 42 -11 14 -9 14 -9 29 19 11 19 11 18 12 -7 0 -25 3 -27 30
-21 23 4 36 0 54 -16 l23 -21 -1 21 c-1 31 37 43 60 18 16 -18 16 -19 -2 -19
-11 0 -25 -10 -33 -22 -12 -19 -11 -23 3 -33 24 -18 20 -29 -14 -42 -35 -13
-41 -48 -10 -58 11 -3 42 -22 69 -41 28 -19 54 -34 58 -34 5 0 18 21 29 46
l21 45 23 -38 c19 -31 23 -51 21 -105 -2 -59 1 -70 20 -85 12 -10 36 -30 53
-44 17 -14 43 -29 59 -33 27 -6 36 -33 18 -52 -6 -5 2 -23 22 -46 42 -48 71
-98 58 -98 -6 0 -11 7 -11 16 0 11 -6 15 -20 11 -11 -3 -23 0 -27 5 -3 7 -1 8
5 4 8 -5 12 0 12 13 0 11 -4 23 -10 26 -5 3 -10 -1 -10 -9 0 -11 -10 -14 -47
-10 -27 3 -56 5 -66 5 -10 0 -16 7 -15 16 3 15 -10 26 -46 37 -11 4 -16 12
-12 22 4 11 0 15 -16 12 -13 -2 -24 -11 -26 -21 -3 -15 0 -18 17 -12 22 7 30
-10 9 -19 -9 -3 -3 -13 16 -29 19 -17 24 -27 16 -32 -7 -4 -23 3 -38 17 -15
14 -35 28 -46 32 -11 4 -16 12 -12 21 7 20 -3 45 -20 45 -7 0 -16 11 -20 24
-6 26 -29 41 -39 27 -3 -5 -2 -23 1 -40 5 -22 12 -31 26 -31 10 0 22 -8 25
-17 4 -10 13 -22 20 -26 27 -16 2 -25 -67 -23 -56 1 -72 5 -85 21 -8 11 -15
14 -15 8 0 -7 -6 -13 -14 -13 -23 0 -13 44 11 50 l23 5 -25 30 c-21 25 -26 28
-35 15 -7 -11 -5 -18 7 -27 9 -7 13 -16 10 -20 -4 -4 -13 -1 -19 5 -16 16 -28
15 -28 -3 0 -8 7 -15 15 -15 8 0 15 -7 15 -15 0 -9 -9 -15 -24 -15 -13 0 -26
-7 -29 -15 -5 -12 -2 -12 19 -3 28 13 39 6 30 -17 -4 -11 -13 -14 -25 -10 -12
3 -21 0 -24 -9 -4 -10 -1 -13 9 -9 9 3 14 -2 14 -17 0 -19 -2 -20 -15 -10 -8
7 -15 9 -16 4 0 -5 -5 2 -10 15 -9 23 -17 24 -80 5 -8 -2 -25 5 -37 16 -31 29
-42 25 -32 -10 8 -27 6 -32 -16 -40 -25 -10 -33 -30 -12 -30 6 0 8 -3 5 -7 -4
-3 -17 -1 -30 4 -39 20 -65 22 -71 6 -9 -21 -8 -23 12 -23 23 0 45 -36 37 -61
-4 -10 -13 -19 -22 -19 -11 0 -14 6 -9 25 4 14 2 25 -4 25 -5 0 -10 -10 -10
-22 0 -17 -3 -19 -9 -9 -5 7 -14 10 -20 7 -7 -5 -11 2 -11 19 0 26 0 26 -24 8
-20 -15 -21 -19 -9 -28 9 -7 13 -23 11 -40 -5 -43 -40 -41 -53 3 -5 17 -13 32
-19 32 -5 0 -17 7 -26 15 -15 14 -19 13 -34 -4 -21 -23 -12 -45 16 -38 15 4
18 1 13 -13 -3 -11 0 -22 8 -27 26 -15 27 -40 2 -51 -17 -8 -28 -7 -42 3 -22
17 -80 20 -85 4 -2 -6 -21 -13 -43 -15 -49 -3 -72 -29 -49 -55 14 -16 14 -20
-1 -48 -8 -17 -23 -31 -32 -31 -17 0 -42 -28 -43 -48 0 -9 5 -10 18 -4 21 12
57 -1 65 -22 11 -28 27 -17 27 19 0 28 5 38 24 46 13 6 26 20 29 30 4 14 13
18 41 15 42 -4 64 -19 68 -49 2 -16 10 -22 30 -22 29 -1 68 -30 68 -52 0 -7 7
-13 16 -13 11 0 14 6 9 20 -7 23 19 29 32 6 10 -16 73 -29 91 -17 10 6 10 10
-3 21 -10 8 -15 9 -15 1 0 -17 -27 -13 -34 6 -4 9 -1 23 7 30 12 12 17 10 38
-11 25 -27 49 -34 49 -15 0 6 6 9 14 6 14 -6 149 7 227 21 62 11 86 2 87 -36
0 -17 8 -42 17 -56 20 -30 12 -66 -16 -66 -10 0 -19 6 -19 14 0 19 -32 10 -60
-16 -12 -12 -36 -24 -54 -27 -25 -5 -32 -12 -34 -34 -3 -23 -8 -28 -25 -25
-16 2 -25 13 -31 41 -5 20 -12 37 -15 37 -3 0 -14 -12 -25 -26 -14 -20 -16
-28 -6 -34 9 -5 6 -12 -10 -23 -18 -13 -20 -19 -11 -36 10 -18 9 -21 -9 -21
-23 0 -70 45 -70 66 0 18 -26 18 -33 1 -3 -8 9 -25 26 -38 45 -36 77 -70 77
-84 0 -7 10 -19 23 -28 l23 -15 -4 60 c-5 71 5 71 40 2 21 -43 21 -47 5 -59
-12 -8 -17 -26 -17 -59 0 -25 -3 -46 -6 -46 -21 0 -98 66 -106 92 -2 6 -10 9
-17 7 -9 -3 -6 -12 10 -33 l22 -28 -22 -21 c-19 -20 -22 -20 -37 -5 -9 9 -18
33 -19 54 -2 42 -29 69 -103 105 -45 22 -63 20 -42 -6 7 -9 10 -18 7 -21 -7
-8 -57 26 -57 38 0 6 -14 8 -30 6 -17 -3 -33 -1 -36 4 -3 4 2 8 10 8 25 0 19
25 -6 27 -13 1 -61 4 -107 6 -80 3 -85 5 -110 35 -15 18 -35 32 -48 32 -12 0
-28 6 -36 14 -8 8 -27 16 -43 18 -21 2 -30 9 -32 26 -2 12 -6 22 -10 22 -4 0
-20 12 -37 27 -16 15 -38 26 -48 25 -21 -4 -67 34 -67 54 0 18 -28 31 -72 32
-26 1 -38 -3 -38 -12 0 -9 8 -12 25 -8 27 5 35 -14 14 -35 -17 -17 25 -37 50
-23 26 14 29 5 24 -62 -5 -51 -8 -58 -27 -58 -15 0 -28 14 -46 50 -13 28 -24
59 -23 70 1 11 -2 22 -8 25 -5 4 -9 -1 -9 -10 0 -9 -5 -25 -11 -36 -10 -20
-12 -20 -30 -3 -15 13 -17 25 -13 55 4 25 2 44 -6 54 -11 13 -8 15 18 15 35 0
45 9 32 30 -6 10 -12 11 -22 3 -7 -6 -30 -14 -50 -18 -31 -6 -38 -4 -38 8 0 9
5 19 10 22 6 3 10 14 10 24 0 13 -10 20 -37 25 -52 8 -63 8 -63 -4 0 -5 8 -10
18 -10 9 0 23 -4 31 -9 11 -7 5 -14 -27 -28 -34 -14 -42 -23 -42 -44 0 -20 6
-28 25 -33 33 -8 42 -31 21 -51 -9 -9 -16 -27 -16 -40 0 -12 -7 -25 -15 -28
-16 -7 -29 8 -20 22 3 6 -11 13 -32 16 -21 3 -48 8 -60 11 -16 3 -23 0 -23
-10 0 -10 15 -17 45 -21 31 -5 49 -14 60 -31 19 -29 29 -30 57 -4 12 11 30 20
40 20 10 0 18 7 18 15 0 8 5 15 10 15 14 0 12 -20 -5 -54 -19 -37 -20 -36 15
-36 32 0 39 -16 18 -40 -8 -8 -3 -7 14 3 35 22 88 23 88 2 0 -8 -6 -16 -12
-17 -7 0 -24 -3 -38 -4 -14 -2 -33 -4 -42 -5 -14 -2 -17 -11 -15 -43 2 -36 -1
-41 -20 -44 -20 -3 -23 1 -23 32 0 19 5 38 10 41 6 3 10 11 10 17 0 6 -9 3
-20 -7 -14 -13 -39 -20 -76 -21 -31 -1 -58 -4 -60 -7 -11 -11 11 -37 32 -37
17 0 24 -6 24 -20 0 -23 18 -27 26 -5 7 17 40 20 49 5 3 -5 1 -19 -5 -31 -9
-15 -9 -24 -1 -32 8 -8 11 -8 11 0 0 17 104 32 119 18 2 -3 5 -24 6 -48 2 -36
6 -44 32 -57 25 -12 31 -21 31 -48 0 -26 -3 -31 -13 -22 -10 8 -16 7 -22 -5
-7 -12 -12 -7 -22 22 -17 47 -49 83 -67 76 -10 -4 -14 -23 -14 -64 0 -70 -12
-75 -55 -24 -23 26 -38 35 -62 35 -35 0 -41 -8 -21 -28 6 -6 13 -32 14 -57 3
-45 2 -46 -24 -44 -15 1 -34 -1 -43 -5 -9 -4 -22 -6 -30 -4 -8 2 -15 -7 -17
-21 -2 -14 -10 -35 -18 -47 -9 -13 -12 -32 -8 -48 4 -19 2 -28 -11 -32 -25
-10 -42 12 -28 35 7 11 10 29 8 40 -2 11 3 27 10 35 13 12 12 15 -1 20 -23 9
-24 8 -24 -17 0 -12 -13 -38 -29 -57 l-29 -35 -18 23 c-26 31 -131 54 -147 31
-15 -20 -81 -31 -96 -16 -17 17 -35 -7 -27 -37 3 -13 14 -32 23 -42 16 -16 16
-18 -5 -34 -16 -13 -33 -16 -69 -13 -26 3 -55 7 -63 10 -8 3 -31 5 -50 4 -19
-1 -43 4 -53 11 -18 13 -18 16 -1 50 9 20 14 43 11 52 -9 22 -49 20 -81 -5
-31 -25 -43 -20 -26 11 6 12 9 28 6 36 -7 17 -38 18 -55 2 -10 -11 -14 -10
-22 5 -6 9 -16 17 -23 17 -7 0 -24 16 -37 36 -22 34 -28 37 -83 40 -33 2 -64
8 -70 14 -5 5 -22 10 -38 10 -26 0 -27 2 -21 32 l6 32 -46 -38 c-51 -42 -97
-47 -107 -11 -4 14 -15 21 -41 23 -36 3 -59 -10 -39 -23 22 -13 9 -23 -20 -15
-16 5 -30 5 -30 2 0 -4 -14 -22 -30 -41 -22 -24 -34 -30 -43 -23 -7 6 -25 12
-42 14 -35 4 -50 38 -16 38 13 0 21 -6 21 -16 0 -25 23 -10 33 22 15 45 34 62
64 56 25 -5 26 -3 20 27 -6 26 -4 31 14 31 11 0 22 -7 25 -15 4 -8 13 -15 21
-15 8 0 11 5 8 10 -3 6 -1 10 4 10 6 0 11 4 11 9 0 17 -58 32 -126 33 -120 1
-124 0 -124 -22 0 -11 7 -20 15 -20 21 0 19 -9 -10 -36 -29 -27 -67 -39 -91
-30 -12 5 -15 17 -12 51 l3 44 -45 -2 c-43 -2 -45 -1 -43 26 1 15 -3 27 -8 27
-6 0 -18 7 -27 16 -18 19 -20 16 -24 -41 -3 -34 -9 -42 -38 -56 -49 -24 -64
-15 -43 25 10 17 24 39 32 48 7 10 11 24 8 31 -8 20 -66 27 -96 11 -14 -8 -38
-14 -53 -14 -16 0 -28 -4 -28 -10 0 -5 -13 -22 -29 -37 -19 -19 -26 -34 -22
-46 4 -10 10 -17 14 -15 24 11 47 -105 34 -172 -3 -14 -6 -29 -6 -33 -1 -5
-13 -7 -28 -5 -20 2 -28 -2 -28 -12 0 -8 7 -14 16 -12 9 1 22 -5 30 -14 17
-21 -5 -37 -43 -30 -23 5 -27 1 -34 -27 -3 -18 -15 -43 -25 -56 -29 -36 -23
-58 21 -87 22 -15 40 -31 40 -35 0 -5 9 -9 20 -9 12 0 20 -7 21 -17 0 -10 2
-30 4 -45 2 -15 -1 -30 -6 -34 -15 -9 0 -24 26 -24 13 0 27 -5 30 -10 11 -18
-22 -22 -57 -7 -22 9 -41 11 -49 6 -36 -22 -57 14 -24 41 24 20 17 30 -21 30
-33 0 -36 -2 -32 -24 5 -23 2 -24 -23 -19 -23 4 -29 2 -29 -12 0 -9 9 -19 20
-22 11 -3 17 -10 14 -15 -4 -7 7 -9 32 -6 45 6 108 -27 125 -66 6 -13 22 -29
35 -35 13 -6 24 -18 24 -27 0 -12 -6 -14 -32 -9 -18 4 -35 11 -38 15 -3 5 -18
12 -33 15 -22 6 -33 3 -48 -14 -11 -11 -26 -21 -33 -21 -8 0 -19 -7 -26 -15
-7 -8 -19 -15 -27 -15 -28 0 -8 44 35 77 l44 33 -37 0 c-28 0 -38 -5 -42 -20
-3 -11 -9 -20 -14 -20 -13 0 -11 14 4 29 10 10 8 14 -6 22 -12 7 -16 17 -11
32 6 21 5 21 -8 3 -19 -24 -55 -14 -60 17 -2 14 -9 20 -18 18 -8 -2 -28 -6
-45 -9 -16 -2 -34 -8 -40 -12 -5 -4 -22 -10 -37 -14 -16 -4 -34 -18 -42 -35
-25 -48 -62 -48 -71 0 -3 13 -10 37 -16 52 -11 26 -10 31 17 53 l29 25 -37 -6
c-21 -3 -54 -8 -73 -11 -37 -6 -45 5 -26 35 6 9 6 22 0 33 -6 12 -6 18 1 18
18 0 11 18 -10 25 -25 8 -25 22 -3 48 17 18 17 19 -7 16 -17 -3 -25 -11 -26
-25 -1 -12 -4 -26 -8 -33 -4 -6 0 -14 8 -17 22 -9 20 -19 -7 -31 -21 -10 -23
-17 -22 -72 1 -66 1 -66 28 -56 29 12 47 -2 47 -35 0 -17 6 -32 13 -34 71 -21
107 -40 107 -56 0 -25 -17 -34 -62 -31 -20 1 -46 -4 -57 -11 -15 -9 -23 -9
-35 2 -14 11 -22 10 -52 -6 -32 -17 -35 -22 -30 -51 4 -27 0 -36 -22 -54 l-27
-21 30 5 c17 3 43 10 60 17 16 6 45 8 63 5 25 -5 39 -2 53 11 18 17 20 16 34
-2 8 -10 15 -29 15 -41 0 -20 -5 -23 -37 -23 -39 0 -115 -30 -127 -49 -4 -6
-20 -11 -37 -11 -22 0 -29 5 -29 20 0 11 -4 20 -10 20 -5 0 -10 9 -10 20 0 26
-63 54 -90 40 -29 -15 -54 -12 -67 9 -10 15 -9 20 2 25 8 3 21 3 29 0 20 -8
27 9 20 45 -7 34 -26 40 -50 16 -9 -8 -24 -15 -35 -15 -10 0 -19 -4 -19 -9 0
-17 -52 2 -67 25 -18 29 -38 32 -23 5 13 -25 13 -61 0 -61 -6 0 -14 10 -19 23
-6 15 -23 26 -55 35 -51 13 -56 22 -25 51 20 19 20 19 1 25 -10 4 -29 17 -42
31 l-23 24 29 12 29 12 -35 8 c-23 5 -37 4 -42 -4 -5 -8 -13 -8 -32 1 -22 10
-26 9 -26 -4 0 -20 22 -42 51 -49 13 -3 33 -13 44 -21 17 -12 18 -17 7 -35 -7
-11 -10 -25 -6 -31 5 -7 2 -8 -6 -3 -10 6 -12 0 -8 -24 4 -24 0 -35 -14 -42
-10 -5 -18 -16 -18 -24 0 -9 -10 -15 -25 -15 -14 0 -25 6 -25 13 0 7 -9 23
-20 35 l-21 22 36 0 c29 0 37 5 46 27 5 14 8 34 7 42 -3 17 -48 29 -48 12 0
-5 -12 -16 -27 -23 -24 -11 -28 -20 -31 -59 -2 -39 -7 -48 -29 -58 -17 -8 -30
-8 -36 -2 -11 11 -1 31 18 31 22 0 26 29 6 40 -18 9 -18 12 7 60 19 38 24 55
16 67 -14 23 6 102 28 109 32 10 21 34 -12 30 -34 -4 -45 -11 -45 -29 0 -7
-16 -12 -43 -11 -50 1 -82 26 -82 64 0 23 3 27 24 23 18 -4 25 0 30 20 3 14
14 28 24 31 18 6 27 56 10 56 -6 0 -26 -14 -45 -31 -39 -34 -50 -30 -67 23 -9
27 -17 34 -43 36 -18 2 -48 -4 -67 -13 -19 -9 -40 -14 -46 -10 -15 9 -2 25 21
25 13 0 19 7 19 24 0 58 26 73 54 31 15 -22 22 -25 54 -19 20 4 58 6 85 6 53
-1 63 13 17 23 -16 4 -30 11 -30 16 0 5 -7 9 -15 9 -8 0 -15 -7 -15 -15 0 -21
-16 -19 -42 7 -17 17 -33 22 -66 21 -47 -2 -92 -25 -92 -48 0 -18 -5 -18 -32
-4 -19 10 -20 9 -13 -31 l7 -42 -31 18 c-17 10 -31 24 -31 31 0 14 -31 33 -55
33 -9 0 -13 -4 -10 -10 3 -5 17 -10 31 -10 17 0 24 -5 24 -19 0 -28 -17 -35
-50 -21 -25 10 -29 17 -27 44 1 24 -3 33 -20 41 -29 13 -29 23 1 36 29 14 46
77 24 90 -8 6 -17 3 -25 -7 -10 -13 -57 -44 -68 -44 -2 0 -1 8 2 19 3 14 -2
20 -24 24 -15 3 -47 24 -71 46 -41 38 -45 40 -65 26 -12 -8 -39 -15 -61 -15
-31 0 -37 -3 -28 -12 7 -7 12 -20 12 -31 0 -17 -2 -17 -30 3 -32 23 -38 48
-18 80 11 17 9 22 -10 35 -28 20 -28 42 -1 50 16 6 18 9 8 15 -7 5 -16 7 -20
4 -4 -2 -12 3 -18 10 -23 27 9 29 36 2 15 -16 36 -26 52 -25 14 0 20 3 14 6
-7 2 -13 11 -13 19 0 8 -6 17 -14 20 -8 3 -13 11 -10 18 3 7 -6 21 -20 30 -15
9 -26 25 -26 36 0 27 -46 27 -80 0 -14 -11 -34 -20 -46 -20 -29 0 -81 27 -88
46 -4 10 -13 13 -25 9 -13 -4 -27 1 -42 16 -16 16 -28 20 -52 15 -20 -4 -36
-1 -47 9 -16 15 -18 14 -24 -8 -4 -18 -18 -28 -53 -40 -27 -8 -47 -20 -45 -26
1 -7 -5 -14 -13 -17 -25 -10 -17 -33 18 -48 17 -8 47 -30 66 -50 19 -20 39
-36 46 -36 19 0 48 -38 51 -65 2 -22 -1 -25 -27 -25 -34 0 -37 -10 -9 -28 11
-7 20 -18 20 -26 0 -16 21 -26 56 -26 26 0 30 10 12 28 -8 8 -8 12 -1 12 15 0
53 -54 93 -135 38 -75 174 -225 204 -225 9 0 20 -8 23 -17 4 -10 17 -26 30
-36 13 -10 23 -27 23 -37 0 -11 14 -29 30 -42 17 -12 30 -28 30 -35 0 -28 -30
-25 -65 6 -24 21 -46 31 -68 31 -18 0 -37 4 -43 10 -6 6 -22 6 -46 0 -33 -10
-84 -4 -149 16 -11 3 -18 -3 -22 -15 -4 -17 -10 -18 -41 -11 -20 4 -42 13 -49
19 -7 5 -23 8 -36 4 -15 -4 -28 1 -42 16 -11 11 -30 21 -43 21 -13 0 -35 9
-49 20 -34 27 -67 26 -67 0 0 -28 -39 -68 -75 -78 -34 -9 -65 -5 -65 9 0 12
46 23 66 15 13 -5 15 0 9 33 -6 38 6 62 37 74 19 6 -5 43 -25 39 -9 -1 -18 2
-21 7 -3 5 -15 7 -25 4 -10 -3 -22 0 -26 7 -9 14 26 48 43 42 6 -2 12 3 12 12
0 9 -6 16 -14 16 -16 0 -46 -26 -46 -40 0 -5 -9 -12 -21 -15 -14 -5 -27 0 -42
18 -22 24 -85 48 -72 27 3 -5 -7 -18 -24 -27 -21 -13 -33 -30 -42 -61 -14 -50
-44 -92 -66 -92 -13 0 -15 8 -10 45 6 42 5 45 -12 36 -10 -6 -21 -8 -23 -5
-12 11 6 56 28 70 18 13 22 22 17 45 -3 17 -1 29 5 29 14 0 33 -26 30 -40 -2
-7 3 -15 10 -17 8 -3 12 9 12 41 0 33 6 52 20 66 24 24 26 45 4 36 -9 -3 -25
-6 -36 -6 -11 0 -36 -16 -55 -35 -19 -19 -39 -35 -44 -35 -4 0 -11 -16 -15
-35 -7 -39 -19 -43 -50 -17 -20 16 -20 20 -8 50 8 17 21 32 28 32 24 0 28 18
9 38 -49 51 -61 74 -58 114 2 26 12 49 29 67 14 15 26 35 26 44 0 23 28 33 50
19 11 -7 22 -7 31 0 11 7 11 11 2 15 -14 5 -18 24 -5 22 24 -4 50 17 68 54 11
23 25 42 32 42 22 0 12 20 -13 27 -22 5 -27 1 -45 -35 -17 -35 -19 -37 -14
-12 12 57 6 92 -23 133 -15 23 -32 41 -38 40 -25 -1 -35 3 -35 17 0 8 -5 15
-11 15 -8 0 -10 -12 -6 -35 7 -43 -12 -48 -30 -8 -16 33 -17 63 -3 63 6 0 15
12 21 27 9 24 7 30 -10 42 -12 7 -21 17 -21 20 0 4 23 18 51 30 l50 23 23 -21
c12 -11 33 -21 47 -20 23 0 23 1 5 12 -11 7 -28 21 -39 31 -11 11 -30 20 -43
22 -13 1 -29 6 -36 11 -7 4 -33 8 -58 8 -25 0 -46 5 -47 10 -2 6 2 11 7 11 6
1 16 2 23 3 6 1 26 14 42 29 17 16 36 27 44 24 11 -4 13 5 9 41 -3 25 -1 50 4
55 6 6 6 12 0 16 -5 3 -17 -3 -27 -14 -17 -19 -17 -21 -1 -39 25 -27 4 -35
-28 -10 -31 24 -34 49 -6 49 26 0 26 16 -1 23 -12 3 -18 10 -14 16 3 6 0 14
-8 17 -8 3 -12 14 -10 28 4 19 -1 24 -29 31 -18 4 -37 8 -43 9 -5 1 -15 11
-21 24 -6 12 -20 29 -30 37 -19 15 -19 15 0 30 17 13 76 18 76 7 0 -1 -9 -12
-20 -24 -19 -21 -19 -38 2 -38 5 0 8 6 5 14 -9 24 53 33 70 10 7 -9 15 -15 18
-12 4 3 -6 15 -21 27 -15 11 -22 21 -15 21 6 0 11 8 11 19 0 10 6 24 14 31 12
9 13 17 4 36 -6 13 -14 24 -18 24 -14 0 -19 -14 -10 -25 8 -9 4 -14 -14 -19
-16 -4 -23 -11 -20 -20 8 -21 -78 -38 -111 -22 -52 24 -7 35 48 11 9 -4 17 -3
17 2 0 6 -19 16 -42 23 -42 12 -92 42 -113 66 -5 6 -23 15 -39 18 -21 5 -26
10 -17 16 11 6 9 10 -8 19 -17 10 -19 15 -11 32 6 11 8 24 5 29 -3 6 2 10 12
10 17 1 17 1 1 11 -10 5 -18 17 -18 24 0 8 -4 15 -10 15 -5 0 -10 -4 -10 -10
0 -13 -32 -1 -47 18 -11 14 -15 14 -31 -1 -11 -10 -26 -14 -41 -10 -22 5 -23
4 -18 -19 6 -22 3 -26 -20 -31 -15 -3 -33 -3 -40 0 -17 7 -17 33 0 34 6 1 18
2 26 3 20 2 26 25 8 31 -8 4 -13 16 -11 33 2 15 1 19 -2 10 -7 -23 -37 -23
-59 -1 -10 10 -43 19 -83 23 -37 4 -80 12 -97 17 -34 11 -55 7 -71 -16 -10
-12 -16 -13 -38 -3 -14 6 -31 10 -38 7 -16 -5 -185 -17 -217 -16 -14 1 -31 -9
-42 -24 -22 -27 -41 -24 -84 13 -20 18 -25 29 -21 47 8 32 -27 59 -55 42 -27
-17 -32 -4 -14 39 9 23 12 41 6 47 -12 12 -31 0 -31 -19 0 -24 -17 -16 -24 11
-8 33 1 47 24 40 11 -4 23 3 34 19 16 25 48 27 43 3 -1 -6 8 -16 20 -22 13 -5
23 -16 23 -23 0 -8 6 -12 13 -9 7 2 11 16 9 32 -3 22 0 26 13 21 9 -3 19 -6
21 -6 2 0 4 -7 4 -15 0 -8 5 -15 11 -15 8 0 10 18 6 58 -7 61 1 85 24 80 9 -2
13 5 12 20 -2 13 1 21 7 17 6 -3 10 -20 10 -37 0 -23 -4 -29 -15 -24 -20 7
-20 -21 0 -40 9 -9 27 -14 47 -11 29 3 33 7 31 31 -3 40 21 27 28 -15 l6 -34
3 30 2 30 7 -30 7 -30 19 32 c10 18 22 30 27 27 4 -3 8 6 8 20 0 18 -4 24 -15
20 -26 -10 -16 11 14 29 30 18 46 56 36 88 -4 11 -11 16 -17 13 -7 -4 -8 5 -3
27 4 22 3 29 -3 21 -5 -8 -13 -14 -18 -15 -5 -1 -8 -9 -7 -17 2 -10 0 -10 -3
-2 -8 17 -24 15 -24 -3 0 -8 4 -15 10 -15 5 0 7 -6 4 -14 -5 -12 -9 -11 -25 5
-23 23 -23 26 -4 46 8 8 13 19 10 24 -4 5 0 9 7 9 16 0 21 37 7 45 -5 4 -9 -1
-9 -9 0 -10 -9 -16 -25 -16 -22 0 -25 -3 -19 -24 6 -26 -25 -56 -58 -56 -10 0
-18 -5 -18 -12 0 -9 -3 -9 -11 -1 -16 16 5 49 35 57 18 4 23 11 19 26 -3 11
-9 20 -14 20 -5 0 -9 6 -9 14 0 7 -6 19 -14 25 -20 17 -57 -19 -49 -48 4 -16
2 -20 -10 -16 -17 7 -11 46 10 58 7 4 13 14 13 22 0 7 8 16 18 18 9 3 0 5 -20
6 -44 1 -52 21 -9 21 18 0 31 6 35 17 6 15 9 15 16 3 5 -8 7 -17 4 -21 -2 -4
20 -6 50 -6 38 2 52 6 49 15 -3 6 -21 12 -40 12 -31 0 -34 2 -23 15 17 21 7
29 -19 15 -12 -6 -21 -8 -21 -5 0 4 -7 -1 -16 -9 -24 -25 -53 -21 -47 7 4 19
2 18 -15 -7 -17 -25 -21 -26 -24 -10 -3 18 -5 17 -25 -3 -12 -12 -25 -18 -28
-13 -4 6 -3 10 2 10 4 0 0 5 -10 11 -18 10 -18 12 -1 30 21 23 54 25 54 3 0
-8 5 -12 10 -9 6 3 10 15 10 26 0 13 7 19 21 19 16 0 20 5 17 28 -2 22 -8 28
-36 30 -40 4 -42 18 -3 25 25 5 29 11 27 33 -4 32 -21 44 -68 44 -26 0 -38 5
-41 18 -3 12 -5 11 -6 -6 -1 -15 -9 -26 -21 -29 -11 -3 -20 -12 -20 -20 0 -8
-5 -11 -11 -7 -6 3 -8 17 -5 30 4 14 2 24 -4 24 -5 0 -10 -9 -10 -20 0 -14 -5
-18 -16 -13 -11 4 -12 8 -4 13 21 13 -18 20 -50 9 -19 -7 -35 -8 -43 -2 -10 8
-45 13 -122 17 -11 1 -26 5 -33 10 -8 4 -50 7 -95 5 -76 -4 -82 -3 -79 15 3
16 -1 18 -31 13 -26 -4 -38 -1 -50 14 -18 20 -104 29 -92 9 8 -12 -5 -13 -25
-1 -8 6 -19 7 -24 3 -6 -3 -17 -7 -26 -8 -67 -11 -111 -29 -134 -54 -31 -36
-32 -40 -6 -40 20 0 19 -3 -11 -46 -23 -34 -28 -49 -20 -57 8 -8 11 -7 11 5 0
18 34 33 50 23 8 -5 6 -15 -4 -31 -9 -13 -16 -32 -16 -42 0 -11 -9 -22 -20
-25 -16 -4 -20 0 -20 19 0 37 -14 29 -31 -18 -11 -30 -22 -44 -37 -46 -25 -4
-29 10 -7 28 8 7 15 9 15 4 0 -5 6 2 14 16 18 35 4 45 -35 26 -18 -9 -45 -16
-60 -16 -31 0 -69 -26 -69 -47 0 -18 -20 -16 -65 6 -25 12 -34 21 -25 26 9 6
9 9 -1 16 -7 4 -18 4 -24 0 -5 -5 -22 -11 -37 -15 l-28 -6 0 -1216 c0 -1057 2
-1220 15 -1251 14 -32 14 -38 0 -53 -9 -10 -15 -36 -15 -63 0 -36 4 -49 20
-57 14 -7 20 -7 20 0 0 17 39 11 59 -9 10 -10 31 -21 47 -24 77 -15 134 -34
150 -49 18 -16 23 -18 41 -18 4 0 2 -5 -4 -11 -8 -8 -8 -20 -1 -41 6 -16 8
-42 4 -59 -6 -33 14 -50 38 -30 12 10 14 5 14 -31 -1 -69 42 -130 100 -143 9
-2 33 -9 52 -14 19 -6 56 -11 82 -11 50 0 58 -6 67 -54 6 -27 12 -32 44 -36
21 -3 36 -9 35 -15 -2 -5 9 -11 23 -13 23 -3 29 -12 45 -60 12 -36 19 -86 19
-137 0 -71 2 -80 18 -77 10 2 21 -6 26 -20 10 -26 41 -45 85 -52 15 -3 45 -14
67 -25 21 -11 68 -23 104 -27 58 -6 66 -10 71 -30 3 -13 18 -30 33 -36 42 -21
66 -81 70 -180 1 -23 6 -28 25 -28 17 0 26 -7 30 -26 8 -29 65 -58 100 -51 12
3 39 -5 61 -17 29 -15 41 -29 45 -51 4 -20 8 -26 13 -17 12 18 52 15 102 -8
44 -20 50 -30 57 -90 2 -16 10 -26 23 -28 51 -7 62 -13 73 -37 7 -15 16 -24
20 -21 5 3 7 -17 5 -44 -2 -45 0 -50 20 -54 35 -8 143 -15 270 -18 112 -3 118
-4 140 -29 12 -15 44 -36 70 -48 31 -14 51 -30 57 -47 7 -16 16 -24 24 -21 17
7 26 -13 26 -53 0 -35 21 -53 52 -45 17 4 32 -1 52 -20 16 -14 34 -24 41 -21
7 2 36 -4 64 -15 28 -10 71 -19 95 -19 26 0 48 -6 56 -15 7 -8 20 -15 29 -15
10 0 26 -7 37 -15 25 -19 43 -19 64 0 16 14 21 14 51 -3 19 -11 65 -27 102
-36 38 -9 81 -26 96 -37 26 -19 30 -19 121 -4 116 18 177 19 183 3 3 -10 7
-10 20 0 9 8 38 15 64 16 26 2 56 6 65 10 9 4 25 3 37 -3 11 -6 34 -11 50 -11
20 0 38 -8 49 -22 9 -11 25 -29 36 -38 30 -28 43 -42 87 -93 28 -32 49 -47 66
-47 13 0 38 -7 55 -16 22 -11 48 -14 97 -11 83 6 259 40 287 55 12 6 24 9 26
6 3 -2 17 0 32 6 21 7 34 6 56 -5 18 -9 40 -13 55 -9 38 9 114 -23 125 -52 11
-28 30 -37 115 -55 33 -7 67 -18 75 -25 8 -6 45 -26 82 -43 67 -31 131 -40
166 -22 57 29 98 41 137 41 25 0 50 6 59 15 16 17 71 21 61 5 -3 -5 1 -10 9
-10 9 0 16 4 16 8 0 16 45 29 78 24 19 -2 43 0 55 6 12 5 99 17 194 25 95 9
188 23 208 31 26 11 42 13 55 6 42 -23 150 -4 150 26 0 7 10 14 22 16 12 2 27
13 33 24 6 12 17 29 24 37 10 13 9 21 -4 46 -8 17 -24 37 -35 44 -11 6 -20 17
-20 22 0 18 90 43 177 49 46 4 94 11 109 16 14 6 47 10 74 10 27 0 84 5 127
11 43 7 86 11 96 11 24 -1 66 46 67 74 0 29 19 44 57 44 18 0 55 11 81 25 26
13 72 29 102 35 47 10 311 45 390 53 19 1 28 11 36 37 12 36 23 46 64 54 30 6
100 68 100 87 0 8 27 24 63 37 34 13 77 30 94 37 18 8 39 12 47 9 8 -3 25 0
38 7 23 12 36 16 148 40 30 6 64 20 76 30 12 11 35 19 57 19 26 0 39 6 47 20
6 11 18 20 27 20 13 0 14 3 5 12 -7 7 -12 19 -12 28 0 18 64 90 80 90 5 0 12
9 15 20 3 11 13 20 21 20 8 0 14 5 14 10 0 6 6 10 13 10 32 0 119 33 144 54
16 14 46 27 66 31 20 4 37 12 37 19 0 21 38 37 59 25 26 -17 51 -4 51 25 0 13
6 26 13 29 9 3 9 9 1 24 -16 27 -6 73 16 73 10 0 21 -7 24 -16 8 -20 26 -9 26
16 0 10 16 32 36 48 30 25 35 35 30 56 -7 27 -8 26 64 39 14 3 39 10 55 16 17
6 42 13 57 16 14 3 55 32 90 65 35 33 69 60 76 60 11 0 13 15 11 63 -3 47 1
68 14 87 9 13 17 29 18 35 1 5 32 37 69 70 37 33 68 65 69 70 1 14 42 49 60
52 8 1 17 6 20 11 10 16 51 33 62 27 13 -9 60 22 56 38 -1 7 8 11 26 10 28 -2
28 -2 21 45 -3 26 -10 55 -15 64 -13 24 0 48 24 45 19 -2 22 3 22 36 0 39 4
44 23 25 9 -9 13 -7 18 5 3 9 15 17 25 17 23 0 59 34 59 55 0 8 4 15 9 15 5 0
25 32 45 71 27 52 39 89 43 138 3 36 11 69 17 74 8 5 7 10 -3 16 -10 7 -9 11
8 23 11 8 24 29 27 46 4 17 12 36 20 43 7 6 10 17 7 25 -3 8 0 14 6 14 6 0 11
5 11 11 0 5 -4 8 -9 4 -6 -3 4 21 20 52 16 32 40 87 53 123 80 222 98 276 126
375 17 60 40 166 51 235 11 69 22 135 24 148 2 12 18 34 35 49 59 49 97 162
103 304 3 61 8 80 25 99 29 31 35 71 23 155 -14 105 -27 147 -52 166 -12 9
-19 21 -16 26 4 6 37 29 74 51 38 23 74 51 81 62 25 40 -18 147 -90 225 -16
16 -28 35 -28 41 0 16 59 59 92 68 33 8 68 69 68 119 0 19 -9 76 -20 128 -25
120 -25 160 -1 181 28 24 36 89 17 146 -92 274 -108 317 -126 329 -11 8 -20
20 -20 26 -1 27 -125 133 -209 179 -26 14 -30 21 -22 35 14 27 41 90 41 97 0
3 -11 6 -23 6 -13 0 -32 9 -42 20 -10 11 -24 20 -32 20 -8 0 -24 9 -36 20 -12
11 -27 18 -34 16 -7 -3 -10 1 -7 8 7 17 -51 41 -91 37 -25 -2 -31 2 -32 18 -1
12 2 21 7 21 5 0 12 10 16 22 4 13 14 29 23 35 14 12 13 15 -12 36 -97 78
-105 88 -133 164 -15 42 -37 85 -49 97 -11 12 -24 29 -28 39 -4 11 -16 21 -27
24 -13 4 -20 14 -20 30 0 27 -52 83 -76 83 -8 0 -17 7 -20 15 -4 8 -12 15 -20
15 -8 0 -14 5 -14 10 0 6 -11 10 -24 10 -24 0 -51 22 -40 33 12 11 -32 25 -73
22 -24 -1 -43 2 -43 6 0 5 -4 9 -10 9 -5 0 -10 -7 -10 -15 0 -8 -7 -15 -15
-15 -8 0 -15 9 -15 20 0 25 -22 26 -43 2z m312 -182 c19 0 84 -44 76 -52 -2
-2 -7 -22 -11 -44 -7 -47 -11 -54 -30 -54 -17 0 -18 14 -3 42 15 29 7 31 -54
18 -53 -12 -56 -12 -118 20 -35 17 -71 38 -79 46 -25 24 23 17 76 -11 52 -28
58 -30 49 -15 -7 11 39 25 54 15 17 -10 13 -25 -6 -25 -9 0 -14 -2 -11 -5 2
-3 26 -2 53 2 43 5 46 8 30 19 -10 7 -22 11 -27 8 -15 -9 -60 46 -53 65 6 14
9 13 22 -6 9 -13 23 -23 32 -23z m634 -1720 c20 -8 37 -17 37 -22 0 -4 18 -25
41 -48 26 -26 35 -40 25 -40 -9 0 -16 -4 -16 -10 0 -5 4 -10 9 -10 5 0 11 -10
14 -22 l6 -23 -20 24 c-16 19 -22 21 -34 11 -8 -7 -21 -10 -29 -7 -7 3 -18 1
-24 -5 -8 -8 -4 -18 14 -35 16 -15 20 -23 11 -23 -8 0 -20 -7 -27 -16 -11 -12
-10 -18 5 -32 13 -13 19 -14 22 -4 6 14 33 16 33 2 0 -5 -7 -10 -15 -10 -20 0
-31 -66 -14 -87 10 -12 10 -15 1 -9 -19 12 -52 -3 -52 -24 0 -11 7 -23 15 -28
23 -12 8 -45 -15 -32 -12 6 -16 17 -12 35 4 25 3 26 -31 20 -40 -8 -62 2 -108
47 -26 26 -32 40 -30 68 3 47 7 48 25 5 l16 -36 29 17 c17 10 28 21 25 25 -2
4 0 10 5 14 6 3 8 12 5 20 -4 9 1 18 11 21 12 5 15 14 11 34 -3 15 -2 31 1 34
11 11 13 46 3 46 -6 0 -10 7 -10 15 0 8 4 15 9 15 5 0 7 9 4 20 -6 23 5 73 15
68 4 -2 24 -10 45 -18z m-10013 -665 c-8 -9 -3 -14 21 -19 17 -3 44 -6 60 -6
27 0 53 -19 27 -21 -9 0 -10 -2 -1 -5 18 -8 3 -34 -19 -34 -14 0 -18 5 -14 16
5 13 1 15 -16 11 -13 -3 -40 -9 -60 -12 -21 -4 -42 -13 -49 -21 -6 -8 -15 -11
-21 -8 -5 3 -20 -1 -33 -10 -32 -21 -48 -20 -40 3 3 10 -1 23 -9 30 -17 14 -9
51 10 51 8 0 14 10 14 23 1 20 2 21 14 5 17 -23 38 -23 62 0 22 21 72 18 54
-3z m390 -35 c0 -11 5 -20 10 -20 17 0 11 -25 -10 -40 -11 -8 -20 -18 -20 -22
0 -8 38 -22 63 -23 10 0 22 -6 27 -14 6 -11 12 -12 23 -3 10 9 18 8 33 -2 18
-14 18 -15 1 -33 -21 -24 -21 -29 -1 -37 10 -4 26 6 45 27 25 27 31 30 39 17
14 -21 -3 -110 -21 -110 -6 0 -8 3 -5 8 7 12 -77 1 -93 -12 -8 -6 -38 -16 -68
-22 -48 -9 -55 -9 -64 7 -13 25 -11 51 6 73 22 29 19 33 -21 34 -20 1 -44 8
-54 17 -23 21 -33 19 -27 -5 3 -13 0 -20 -9 -20 -8 0 -14 6 -14 14 0 8 -7 16
-15 20 -8 3 -15 15 -15 26 0 25 -12 26 -30 0 -14 -19 -49 -28 -51 -12 0 4 -2
15 -4 25 -2 9 5 22 16 28 12 6 18 17 15 27 -3 9 -1 23 3 31 8 12 12 12 25 2
13 -11 16 -11 16 0 0 8 9 4 23 -9 33 -31 73 -29 89 5 12 24 38 39 76 42 6 1
12 -8 12 -19z m-296 -84 c-3 -8 -12 -17 -20 -20 -11 -4 -12 -10 -4 -25 14 -28
13 -51 -4 -51 -16 0 -46 -26 -46 -40 0 -5 13 -16 28 -26 34 -20 33 -55 -3 -78
-13 -9 -25 -26 -27 -38 -2 -18 -10 -24 -37 -26 -28 -3 -33 -1 -24 10 6 7 11
18 11 23 0 6 9 14 21 20 11 5 21 13 21 17 0 3 7 14 16 23 9 9 15 17 13 18 -49
27 -89 44 -93 39 -4 -3 -6 -15 -6 -27 0 -27 -15 -40 -54 -49 l-29 -7 8 43 c4
24 11 63 15 87 9 52 33 75 62 60 13 -7 18 -17 15 -30 -3 -12 0 -22 9 -26 8 -3
14 -11 14 -19 0 -19 16 -18 24 2 4 9 -1 27 -9 40 -13 20 -13 24 -1 24 23 0 27
27 4 33 -12 3 -17 10 -13 17 4 6 12 9 19 7 6 -2 20 -1 31 4 34 13 65 11 59 -5z
m986 -286 c0 -5 -4 -10 -10 -10 -18 0 -10 -26 15 -50 28 -27 32 -40 10 -40
-19 0 -19 -7 2 -28 12 -12 18 -13 21 -4 5 17 33 15 47 -4 16 -23 173 -27 185
-4 7 11 11 12 23 2 12 -10 13 -20 6 -45 -5 -18 -9 -39 -9 -47 0 -19 108 -83
127 -75 22 8 -9 35 -40 35 -29 0 -62 33 -54 55 10 23 51 19 62 -7 6 -12 24
-27 42 -31 21 -6 33 -17 37 -33 7 -28 26 -32 26 -6 1 15 2 15 15 -2 13 -17 23
-18 92 -13 44 3 85 2 93 -3 13 -8 12 -11 -5 -16 -12 -3 -26 -14 -33 -25 -15
-23 -11 -25 71 -32 58 -6 62 -4 58 36 -1 9 2 17 7 17 15 0 30 -44 25 -76 -5
-34 16 -64 47 -64 21 0 33 -25 25 -50 -4 -13 2 -19 23 -23 35 -7 50 -35 24
-43 -9 -3 -30 -12 -45 -21 -26 -14 -28 -14 -25 2 4 24 -29 45 -41 26 -7 -11
-17 -12 -54 -2 -61 15 -67 14 -67 -9 0 -12 7 -20 16 -20 22 0 116 -32 131 -45
7 -5 19 -16 28 -23 8 -7 24 -10 35 -7 24 8 82 -50 78 -78 -4 -22 -98 -78 -98
-58 0 5 5 11 12 13 8 3 7 12 -3 34 -12 24 -23 31 -69 40 -38 7 -56 15 -58 27
-2 9 -7 17 -10 18 -39 5 -54 8 -96 23 -69 24 -72 27 -45 46 l23 18 -27 -5
c-15 -3 -25 -9 -22 -13 3 -4 -2 -13 -10 -20 -18 -15 -89 -4 -106 16 -6 8 -19
14 -28 14 -13 -1 -13 -3 3 -15 19 -15 19 -15 -1 -15 -11 0 -35 -3 -52 -6 -26
-6 -31 -4 -31 13 0 11 9 28 20 38 19 17 19 19 3 46 -21 36 -36 38 -27 4 5 -22
3 -25 -20 -25 -16 0 -26 -6 -26 -15 0 -19 -61 -46 -76 -33 -15 11 -6 48 12 48
7 0 15 4 18 9 11 17 -6 41 -29 41 -16 0 -30 11 -45 34 -16 26 -29 36 -53 38
-28 3 -32 7 -33 33 0 17 -6 29 -12 28 -7 -2 -12 2 -12 7 0 6 -7 10 -15 10 -17
0 -20 -25 -5 -35 17 -10 -9 -47 -28 -41 -13 4 -17 -1 -18 -19 -1 -14 3 -25 10
-25 6 0 23 -13 39 -29 l27 -28 -23 -42 c-13 -22 -27 -38 -30 -34 -11 10 -8 48
4 60 16 16 6 36 -24 52 -22 12 -27 11 -46 -8 -26 -26 -41 -27 -41 -2 0 11 9
23 20 26 11 3 20 10 20 15 0 5 7 7 15 4 10 -4 15 0 15 10 0 13 -4 15 -20 6
-15 -8 -21 -6 -29 8 -8 14 -26 21 -72 25 -68 6 -89 18 -70 40 18 22 -14 45
-40 29 -10 -7 -24 -12 -31 -12 -7 0 -24 -9 -38 -20 -14 -11 -35 -20 -48 -20
-19 0 -22 4 -17 21 5 15 4 19 -4 15 -16 -10 -14 -36 4 -42 14 -6 21 -45 9 -56
-14 -15 -44 6 -44 30 0 14 -3 22 -7 18 -4 -3 -6 -24 -5 -46 2 -28 -1 -40 -11
-40 -15 0 -52 32 -60 52 -4 10 -8 10 -17 -2 -9 -12 -10 -10 -4 10 9 34 11 35
30 20 13 -12 17 -11 25 1 11 18 12 39 0 39 -5 0 -15 16 -21 35 -7 21 -18 35
-28 35 -15 1 -15 2 -1 13 8 7 24 25 34 40 l18 29 15 -29 c8 -15 16 -29 17 -31
6 -7 44 32 39 40 -3 5 6 21 20 35 14 14 26 30 26 34 0 5 7 9 15 9 13 0 35 28
35 46 0 3 -15 -5 -34 -20 -38 -29 -60 -18 -31 14 24 27 53 34 72 18 14 -12 14
-9 -1 20 -19 36 -7 44 17 10 l16 -23 0 27 c1 35 18 44 41 23 17 -16 19 -15 34
8 13 19 23 23 44 19 15 -2 33 -9 39 -14 9 -7 16 -3 23 17 5 14 10 31 10 36 0
5 9 9 20 9 11 0 20 -4 20 -10z m8914 -308 c5 -9 -25 -198 -49 -300 -18 -79
-89 -291 -129 -387 -14 -35 -32 -61 -42 -64 -12 -2 -14 -5 -5 -11 10 -5 5 -23
-19 -69 -18 -33 -36 -58 -42 -55 -14 9 -48 -26 -48 -50 0 -17 -2 -18 -10 -6
-7 12 -10 8 -10 -15 -1 -50 -18 -7 -21 52 -2 32 3 64 13 85 9 18 21 45 27 61
9 23 16 27 50 27 55 0 66 18 36 62 -16 24 -21 38 -13 46 7 7 6 16 -1 30 -6 11
-11 37 -11 56 0 27 -6 40 -25 52 -33 22 -31 35 9 61 20 13 35 32 39 50 4 20
22 40 61 67 l56 38 2 72 c0 39 1 79 0 89 -1 11 5 17 19 17 15 0 19 4 15 16 -3
9 3 31 15 50 16 26 28 34 49 34 16 0 31 -3 34 -8z m-9595 -99 c7 -24 7 -41 1
-47 -6 -6 -10 -17 -10 -25 0 -11 3 -11 13 4 11 14 21 16 42 11 25 -6 27 -5 16
8 -11 13 -11 17 3 22 15 6 93 0 100 -7 10 -11 -16 -49 -34 -49 -15 0 -20 -7
-20 -28 0 -28 -15 -52 -33 -52 -5 0 -7 11 -4 25 3 17 0 24 -7 20 -6 -3 -18 -8
-27 -11 -10 -3 -19 -22 -23 -47 -5 -31 -9 -38 -16 -27 -7 12 -12 12 -22 2 -6
-6 -16 -12 -21 -12 -5 0 -1 7 8 16 14 15 14 18 0 33 -8 10 -15 30 -15 45 0 20
-6 29 -20 33 -28 7 -19 28 11 28 39 0 48 11 42 55 -7 50 3 52 16 3z m1136
-763 c-4 -7 2 -9 19 -4 19 4 28 2 32 -10 7 -18 59 -22 69 -6 9 15 48 12 92 -8
46 -20 45 -30 -4 -82 l-33 -35 30 -3 c30 -3 39 -15 21 -27 -6 -3 -7 -36 -4
-75 5 -60 3 -73 -13 -91 -18 -20 -18 -21 1 -35 10 -8 13 -14 7 -14 -7 0 -12
-9 -12 -20 0 -23 -18 -27 -26 -5 -9 22 -26 7 -19 -16 13 -39 -7 -41 -41 -4
-24 27 -38 35 -53 30 -16 -5 -18 -2 -13 17 3 13 14 35 25 50 17 23 19 32 9 53
-7 14 -12 39 -12 54 0 24 -15 41 -36 41 -2 0 -4 -16 -4 -35 0 -38 -15 -47 -25
-15 -3 11 -15 20 -25 20 -10 0 -22 5 -25 10 -10 15 -25 2 -25 -22 0 -20 -1
-20 -18 -5 -10 10 -24 17 -30 17 -17 0 -15 17 3 24 19 7 20 26 0 26 -20 0 -32
26 -27 61 4 30 7 31 70 31 19 0 32 6 32 13 0 7 7 16 16 19 8 3 12 10 9 16 -4
6 -12 7 -18 3 -7 -4 -24 -8 -39 -9 -25 -1 -26 0 -16 20 7 13 13 16 16 8 5 -17
30 -15 48 3 18 17 28 20 19 5z m-305 -115 c0 -14 5 -25 11 -25 5 0 8 4 5 8 -2
4 -1 14 4 21 6 10 9 8 15 -8 9 -28 33 -27 47 4 14 31 22 31 40 3 25 -38 27
-65 7 -94 -17 -27 -17 -28 2 -42 10 -7 17 -18 14 -23 -11 -17 -37 -9 -65 21
-25 26 -35 30 -87 31 -32 1 -68 0 -80 -1 -15 -1 -23 4 -23 14 0 15 12 21 34
17 5 -1 6 14 3 34 -4 26 -2 35 9 35 8 0 14 -6 14 -14 0 -8 5 -18 11 -22 16
-10 29 17 18 37 -12 24 -11 29 6 29 9 0 15 -9 15 -25z m7960 -667 c0 -19 -41
-57 -56 -51 -19 7 -43 -14 -39 -35 3 -21 -30 -41 -67 -42 -18 0 -28 -5 -28
-14 0 -21 -20 -30 -33 -16 -9 10 -9 14 0 17 7 2 9 11 6 19 -3 8 1 14 10 14 11
0 18 14 22 45 4 24 12 49 19 54 25 21 166 29 166 9z m-5720 -88 c6 -12 10 -28
9 -38 -3 -34 1 -42 25 -42 25 0 56 23 56 41 0 6 17 9 38 7 25 -2 36 -7 34 -17
-4 -18 29 -41 51 -35 9 3 17 0 17 -6 0 -7 9 -23 20 -37 28 -36 25 -53 -8 -53
-16 0 -37 -9 -46 -19 -17 -19 -17 -20 3 -31 15 -7 37 -8 72 -2 43 8 50 7 47
-6 -4 -20 -88 -46 -102 -32 -6 6 -23 10 -38 10 -28 0 -37 13 -18 25 16 10 11
26 -7 23 -10 -2 -17 2 -16 9 3 14 -72 37 -88 28 -14 -9 -39 14 -39 36 0 18
-42 45 -62 41 -10 -2 -10 30 -2 81 7 42 36 51 54 17z m3160 -46 c24 -12 65
-17 161 -19 117 -2 166 -10 131 -22 -11 -4 -10 -8 2 -22 8 -9 18 -28 21 -43 6
-22 4 -28 -8 -28 -9 0 -19 5 -22 10 -8 13 -52 13 -60 0 -3 -6 -17 -7 -30 -4
-20 5 -24 2 -27 -22 -4 -37 -20 -40 -56 -9 -16 14 -38 25 -48 25 -11 0 -31 6
-45 14 -22 11 -29 11 -44 0 -44 -32 -102 1 -68 39 15 16 13 17 -47 10 -51 -5
-62 -4 -58 8 2 8 15 16 29 17 13 2 28 8 34 13 5 5 16 9 25 9 9 0 25 9 35 20
22 24 32 25 75 4z"/>
<path d="M5250 7859 c-34 -6 -61 -17 -71 -29 -9 -10 -19 -16 -23 -13 -3 4 -6
2 -6 -4 0 -12 48 -35 59 -28 13 8 78 -30 73 -43 -2 -7 9 -15 27 -18 18 -4 36
-15 42 -26 8 -14 17 -18 34 -14 17 4 28 0 37 -13 16 -22 130 -86 171 -95 16
-4 47 -24 70 -45 23 -21 50 -41 60 -44 13 -5 16 -13 11 -31 -7 -31 19 -58 85
-86 92 -40 -160 -10 -325 38 -100 29 -146 35 -179 21 -36 -14 -99 -12 -140 5
-60 25 -102 36 -143 36 -23 0 -43 5 -43 10 -1 6 -2 15 -3 22 -2 23 -26 19 -36
-6 -5 -14 -16 -26 -24 -26 -7 0 -16 -10 -20 -22 -3 -13 -18 -37 -34 -55 -16
-17 -32 -43 -34 -57 l-5 -25 25 19 c35 28 50 25 22 -5 -13 -14 -29 -25 -36
-25 -7 0 -18 -9 -24 -21 -9 -17 -8 -23 6 -34 15 -11 16 -15 5 -29 -11 -13 -10
-17 5 -23 24 -9 75 -9 97 1 14 7 17 3 17 -19 0 -21 3 -25 13 -17 6 5 23 13 37
16 24 7 24 6 -5 -19 -30 -27 -30 -27 -5 -22 74 16 120 19 120 8 0 -8 11 -10
33 -6 20 4 43 1 61 -9 27 -14 31 -13 42 2 12 15 13 16 14 1 0 -24 47 -34 66
-14 18 17 30 19 39 5 3 -5 -3 -10 -14 -10 -12 0 -21 -4 -21 -10 0 -5 14 -10
31 -10 26 0 29 3 24 20 -5 17 -2 20 27 21 108 3 120 6 125 38 3 22 -34 22 -48
0 -7 -11 -9 -9 -9 9 0 17 -5 22 -17 20 -10 -2 -17 -11 -15 -21 3 -17 -2 -17
-48 0 -8 4 -24 5 -34 4 -10 -2 -28 2 -40 7 -12 6 -29 13 -38 16 -10 3 -18 12
-18 21 0 20 12 19 37 -4 16 -15 23 -17 32 -8 10 9 12 9 9 -2 -6 -24 18 -22 31
3 11 21 20 24 52 21 42 -4 57 8 40 29 -8 10 -8 16 1 23 15 12 120 14 113 3 -3
-5 1 -10 7 -13 8 -2 9 -8 4 -13 -5 -5 -13 -2 -19 7 -14 23 -57 2 -57 -28 0
-13 5 -23 10 -23 6 0 10 10 10 23 0 17 2 19 10 7 5 -8 7 -24 4 -36 -4 -17 2
-23 35 -34 28 -9 38 -17 34 -27 -5 -13 -2 -13 16 -4 12 7 30 10 39 8 14 -4 13
-6 -5 -12 -13 -4 -23 -10 -23 -14 0 -13 42 -32 59 -26 10 3 29 -4 44 -15 22
-17 30 -19 48 -10 11 6 48 13 82 14 34 2 72 9 85 17 20 12 24 12 32 -1 8 -13
11 -11 16 7 3 12 13 24 23 25 9 2 -35 7 -98 12 -109 7 -114 6 -137 -15 -21
-20 -24 -21 -24 -4 0 14 -6 16 -30 12 -20 -4 -29 -3 -27 5 1 7 -7 14 -18 16
-27 5 -44 22 -22 22 21 0 22 16 1 28 -14 8 -12 12 12 30 16 12 34 26 41 32 15
13 44 13 63 0 13 -8 13 -11 1 -19 -7 -5 -10 -14 -7 -20 9 -13 -6 -15 -19 -2
-12 11 -55 -4 -55 -19 0 -15 33 -26 37 -13 5 15 43 4 43 -13 0 -20 41 -17 70
6 19 15 22 22 12 28 -10 7 -10 11 2 22 19 15 10 34 -11 26 -12 -5 -14 -1 -9
16 3 13 6 27 6 31 0 18 39 -15 42 -35 2 -18 8 -22 27 -20 15 2 21 0 17 -7 -9
-15 7 -14 22 1 8 8 16 6 30 -12 14 -17 24 -21 38 -16 35 15 79 15 98 0 11 -7
18 -15 15 -16 -34 -22 -55 -28 -89 -28 -22 0 -40 -4 -40 -8 0 -16 70 -31 101
-22 25 8 30 6 25 -5 -3 -8 -1 -15 4 -15 6 0 10 7 10 15 0 8 7 15 16 15 8 0 13
4 10 9 -3 5 2 12 11 15 9 4 20 1 24 -6 6 -9 15 -7 38 10 17 12 40 22 53 22 28
1 138 26 146 34 3 3 -5 6 -17 6 -13 0 -25 9 -30 23 -5 12 -24 39 -43 60 -30
33 -39 37 -80 37 -26 0 -50 -5 -54 -11 -4 -7 -20 -8 -41 -4 -23 4 -33 3 -28
-4 4 -7 -11 -10 -43 -10 -50 2 -81 -5 -119 -23 -30 -15 -82 8 -75 34 6 23 15
23 36 -1 10 -11 25 -17 37 -14 26 7 24 22 -3 32 -22 9 -22 9 -4 17 14 5 24 1
37 -14 25 -32 51 -29 47 6 -2 22 -9 28 -33 30 -25 2 -33 10 -48 46 -12 29 -30
50 -58 67 -22 13 -64 42 -92 65 -76 59 -169 124 -178 124 -4 0 -21 12 -36 26
-15 14 -45 33 -65 41 -21 8 -38 21 -38 28 0 8 -19 16 -50 20 -27 4 -50 10 -50
15 0 4 -22 6 -50 5 -27 -2 -50 1 -50 6 0 10 -14 10 -90 -2z"/>
<path d="M1939 7806 c-3 -3 -44 -7 -90 -9 -73 -2 -84 -4 -83 -19 1 -10 -4 -18
-12 -18 -19 0 -28 -21 -13 -31 11 -7 11 -9 1 -9 -7 0 -11 -4 -8 -9 3 -5 -2
-12 -12 -16 -10 -4 -21 -1 -26 8 -7 11 -14 11 -32 3 -35 -16 -30 -23 26 -30
28 -4 71 -17 96 -30 l47 -24 22 24 c25 27 35 30 35 10 0 -8 16 -16 40 -20 34
-5 40 -10 40 -31 0 -20 5 -25 25 -25 14 0 25 -5 25 -11 0 -6 9 -9 20 -6 11 3
26 -1 34 -8 7 -7 24 -15 37 -17 l24 -4 -26 -13 c-14 -7 -34 -26 -43 -43 -14
-23 -24 -29 -41 -25 -28 5 -50 -7 -41 -21 4 -6 21 -8 41 -5 23 4 35 2 35 -6 0
-6 7 -11 15 -11 25 0 17 -20 -12 -32 -16 -7 -42 -23 -59 -35 -17 -13 -38 -23
-46 -23 -9 0 -29 -7 -44 -15 -34 -17 -70 -19 -79 -5 -4 6 -12 9 -18 8 -7 -2
-32 4 -56 12 -43 14 -44 14 -67 -13 -24 -28 -50 -35 -56 -15 -3 7 -14 9 -32 4
-16 -4 -25 -10 -22 -14 11 -10 99 -42 119 -42 9 0 17 -4 17 -8 0 -5 17 -18 39
-30 41 -24 100 -29 118 -11 8 8 13 7 18 -1 4 -7 1 -16 -6 -21 -12 -8 -12 -11
1 -19 22 -14 28 -12 35 11 5 16 14 20 41 17 24 -2 38 3 48 17 14 18 15 18 16
3 0 -10 10 -23 23 -29 12 -7 25 -16 28 -21 3 -5 24 -8 45 -6 l39 3 -55 27
c-52 25 -53 27 -29 33 44 11 84 2 83 -17 -3 -28 31 -24 145 17 11 4 11 8 1 20
-10 12 -9 15 9 15 11 0 21 -4 21 -10 0 -5 7 -10 15 -10 11 0 14 7 9 25 -5 21
-3 25 16 25 28 0 75 -36 60 -45 -6 -4 -14 -4 -17 -1 -4 3 -17 -1 -30 -9 -13
-9 -28 -13 -32 -10 -5 3 -16 2 -25 -1 -12 -5 -14 -10 -6 -19 11 -13 -16 -19
-112 -28 -41 -3 -46 -17 -5 -17 51 0 70 -9 56 -26 -9 -11 -7 -14 13 -14 13 0
29 5 35 11 8 8 17 8 33 -1 12 -6 28 -9 36 -6 17 7 18 33 2 39 -7 3 -3 6 10 7
24 3 30 4 52 12 40 15 53 18 76 12 16 -4 23 -12 20 -20 -3 -8 1 -14 10 -14 12
0 15 7 12 24 -3 16 0 27 10 31 17 6 15 7 31 -23 10 -19 15 -21 27 -11 11 9 12
15 3 26 -9 11 -9 17 1 26 10 10 11 9 5 -2 -5 -9 -2 -18 7 -25 18 -13 108 -9
108 5 0 5 -4 9 -10 9 -23 0 -7 29 21 39 40 14 39 14 39 -4 0 -18 12 -19 28 -3
9 9 12 9 12 0 0 -7 -5 -12 -11 -12 -8 0 -8 -4 0 -14 9 -11 9 -20 2 -34 -8 -16
-6 -21 14 -32 13 -7 22 -17 19 -22 -8 -12 -68 -10 -81 3 -9 9 -19 6 -39 -10
-18 -14 -41 -21 -72 -21 -36 0 -42 -3 -33 -13 12 -15 5 -27 -17 -27 -7 0 -28
-10 -45 -22 -17 -12 -27 -17 -23 -10 5 8 0 12 -14 12 -12 0 -18 -5 -15 -10 3
-6 0 -13 -8 -16 -16 -6 -12 -44 5 -44 5 0 27 9 48 20 22 11 60 23 85 27 40 5
43 7 28 19 -17 12 -17 13 -1 14 9 0 20 -5 24 -11 10 -16 65 -2 81 21 17 24 33
26 33 5 0 -17 45 -21 55 -5 3 6 25 10 48 10 63 1 116 16 136 39 12 14 21 17
28 10 15 -15 65 0 59 17 -7 19 19 18 38 -2 15 -14 16 -13 14 18 -4 47 25 46
32 -1 4 -28 10 -35 30 -37 35 -4 70 15 63 35 -3 10 3 7 16 -8 12 -13 21 -18
21 -12 0 6 7 11 16 11 8 0 12 -4 9 -10 -3 -5 3 -10 15 -10 11 0 23 -7 26 -15
4 -9 19 -15 38 -15 18 0 37 -5 44 -12 8 -8 15 -8 26 1 21 18 39 4 32 -25 -5
-17 -2 -24 9 -24 8 0 15 -4 15 -8 0 -5 21 -9 47 -10 31 0 51 -6 59 -16 6 -9
16 -16 22 -16 6 0 19 -10 29 -23 10 -13 26 -26 36 -30 9 -3 17 -13 17 -22 0
-9 8 -25 18 -36 11 -10 25 -31 33 -45 13 -25 12 -28 -16 -50 -16 -13 -37 -24
-47 -26 -16 -3 -16 -4 0 -25 15 -19 22 -21 60 -14 24 5 42 4 42 -1 0 -13 -17
-17 -95 -21 -80 -5 -105 -13 -105 -33 0 -17 5 -17 31 -4 16 9 21 7 28 -12 7
-17 5 -26 -7 -35 -22 -18 -27 -16 -40 10 -6 12 -11 16 -11 10 -1 -19 -48 -16
-55 3 -9 24 -7 36 5 28 7 -4 1 7 -12 25 -12 17 -27 31 -32 31 -5 0 -6 14 -2
30 5 24 3 30 -10 30 -13 0 -15 -6 -10 -31 6 -25 4 -31 -14 -36 -12 -3 -21 -12
-21 -20 0 -10 -4 -11 -19 -3 -26 14 -38 13 -44 -4 -4 -9 0 -12 13 -9 10 3 21
-1 25 -8 5 -7 4 -10 -1 -6 -5 3 -18 -1 -29 -9 -18 -13 -18 -14 6 -14 15 0 35
12 52 31 30 35 35 31 11 -10 -9 -15 -29 -32 -45 -38 -16 -6 -29 -17 -29 -23 0
-7 6 -10 14 -7 7 3 17 2 22 -2 5 -5 24 -11 42 -14 26 -5 32 -3 32 12 0 28 9
31 40 13 21 -12 26 -20 18 -29 -7 -9 -4 -15 13 -22 129 -52 217 -60 256 -23
13 12 29 20 34 17 15 -10 10 -22 -11 -28 -11 -3 -20 -11 -20 -17 0 -7 7 -10
16 -6 9 3 22 6 29 6 8 0 28 20 44 44 17 25 44 51 60 59 28 14 31 13 46 -7 l16
-21 -5 23 c-5 26 1 28 26 5 16 -14 23 -15 39 -5 23 15 59 0 59 -25 0 -11 6
-14 23 -9 12 4 29 8 37 9 8 1 18 6 22 11 3 5 21 10 40 11 18 0 43 7 56 14 13
7 31 10 40 6 8 -3 36 -2 61 1 40 7 43 8 21 14 -14 4 -38 6 -55 4 -16 -3 -24
-2 -17 2 17 8 15 27 -3 20 -18 -7 -45 3 -45 16 0 5 10 7 23 4 12 -3 16 -3 10
0 -7 3 -13 14 -13 24 0 12 -8 18 -25 18 -13 0 -23 -5 -22 -10 1 -6 -4 -13 -12
-15 -9 -4 -11 0 -7 13 4 15 -4 25 -37 44 -23 13 -46 23 -51 22 -14 -5 -35 19
-29 34 5 14 -10 19 -48 16 -9 -1 -22 10 -29 23 -7 14 -18 25 -24 25 -12 0 -56
49 -56 62 0 4 -7 8 -16 8 -9 0 -18 9 -21 20 -5 19 -16 25 -37 21 -5 -1 -6 5
-3 14 7 18 -1 45 -14 45 -5 0 -9 -11 -9 -25 0 -14 -4 -25 -10 -25 -5 0 -10 4
-10 8 0 5 -14 22 -31 40 -18 18 -28 36 -23 43 4 7 3 9 -4 5 -10 -6 -40 17
-149 113 -17 15 -53 34 -78 41 -26 7 -49 19 -52 26 -2 7 -19 16 -36 19 -18 4
-47 16 -66 27 -21 12 -43 17 -58 13 -13 -3 -28 -3 -34 0 -5 4 -44 7 -87 8
l-77 2 -5 -30 c-5 -28 -9 -30 -49 -31 -33 0 -46 -6 -55 -21 -17 -32 -35 -18
-26 21 4 19 11 39 15 46 10 16 -44 -13 -71 -38 -11 -11 -30 -25 -43 -31 l-22
-12 26 -21 c25 -19 25 -21 9 -39 -19 -21 -39 -20 -39 2 0 10 -11 13 -35 12
-19 -1 -38 3 -42 10 -4 6 -19 12 -35 12 -22 1 -30 8 -37 32 -11 35 -60 60 -82
42 -14 -12 -34 -4 -34 13 0 6 9 8 20 5 25 -6 26 7 2 31 -17 17 -20 17 -30 3
-9 -14 -11 -13 -11 6 -1 30 -17 37 -25 10 l-6 -22 -16 23 c-12 18 -19 21 -30
11 -8 -6 -14 -8 -14 -4 0 4 8 14 18 21 16 13 15 15 -8 34 -38 31 -139 130
-132 130 3 0 -9 11 -27 24 -18 14 -40 34 -48 45 -8 12 -18 21 -24 21 -12 0
-50 38 -46 48 1 4 -9 9 -23 10 -13 2 -40 16 -60 31 -58 44 -147 83 -198 86
-26 2 -76 6 -112 10 -36 4 -68 4 -71 1z"/>
<path d="M427 7410 c-10 -16 -22 -30 -26 -30 -5 0 -38 -37 -74 -82 -36 -46
-87 -103 -112 -128 -53 -51 -89 -116 -98 -175 -4 -22 0 -80 7 -130 8 -50 10
-101 6 -116 -6 -20 -4 -29 6 -33 8 -3 14 -13 14 -22 0 -10 -5 -14 -15 -11 -10
4 -16 -4 -21 -28 -4 -23 -13 -37 -27 -41 -20 -6 -20 -7 -3 -20 17 -12 16 -13
-9 -11 -33 2 -59 -28 -36 -42 11 -7 9 -10 -10 -13 -22 -3 -24 -7 -24 -63 0
-56 2 -60 24 -63 20 -3 23 0 17 15 -6 14 -5 16 5 6 7 -7 27 -13 45 -13 18 0
34 -5 36 -12 2 -6 12 -9 21 -5 10 4 14 12 11 22 -7 17 11 21 21 5 3 -5 14 -10
23 -10 11 0 13 3 6 8 -6 4 -11 18 -10 32 1 31 27 39 80 28 31 -7 42 -5 57 8
17 15 18 19 4 34 -19 21 -19 30 0 30 8 0 15 5 15 10 0 6 9 10 20 10 11 0 20 4
20 8 0 5 10 14 23 21 18 9 14 10 -27 5 -33 -4 -51 -2 -56 6 -5 9 -13 9 -26 2
-12 -7 -25 -7 -40 0 -12 6 -34 8 -48 4 -23 -6 -24 -9 -14 -26 16 -25 -6 -50
-46 -54 -32 -4 -69 -35 -62 -53 6 -16 -6 -17 -21 -2 -12 12 28 59 51 59 29 0
40 86 14 104 -16 11 -12 13 29 12 27 0 51 -5 55 -10 4 -6 28 -11 53 -11 40 -2
48 1 57 21 6 12 21 24 34 27 20 3 25 -1 30 -28 5 -27 10 -32 36 -32 18 0 34
-6 39 -16 7 -12 18 -15 40 -10 21 4 34 1 39 -8 11 -17 80 -20 80 -4 0 7 7 18
15 25 12 10 15 10 15 -4 0 -35 161 -10 182 28 11 20 81 22 97 2 16 -19 60 -9
54 14 -3 10 2 20 13 24 22 9 30 0 15 -18 -9 -11 -8 -15 5 -20 19 -7 37 2 29
14 -3 5 4 14 15 20 28 15 25 30 -5 30 -14 0 -25 5 -25 12 0 9 -3 9 -12 0 -17
-17 -29 -15 -22 3 5 11 -1 15 -21 15 -17 0 -29 -6 -31 -17 -5 -17 -26 -19
-119 -14 -21 2 15 23 46 28 19 2 48 11 66 20 20 9 40 12 55 7 36 -12 49 -13
72 -5 18 7 14 10 -23 16 -26 4 -39 10 -31 15 6 4 11 11 10 16 -3 18 31 15 61
-7 l31 -22 -11 22 c-7 12 -19 25 -27 28 -8 3 -14 15 -14 27 0 12 -3 16 -8 10
-8 -12 -72 -15 -72 -3 0 4 9 11 20 14 11 3 20 10 20 15 0 12 -65 24 -85 16
-27 -10 -16 -23 18 -18 l32 4 -30 -17 c-42 -23 -53 -35 -31 -35 9 0 15 -4 12
-9 -4 -5 -2 -11 4 -13 5 -1 6 -9 1 -16 -4 -7 -15 -10 -24 -6 -9 3 -14 11 -10
17 4 6 0 8 -10 4 -19 -7 -47 1 -47 13 0 4 10 10 21 13 14 4 20 11 16 21 -3 8
-2 18 3 21 16 10 11 22 -9 28 -11 2 -24 0 -30 -6 -8 -8 -14 -8 -23 1 -24 24
-29 11 -7 -20 21 -29 21 -31 3 -23 -27 11 -74 18 -74 11 0 -4 10 -11 23 -16
16 -7 5 -8 -38 -4 -33 3 -70 6 -83 6 -26 0 -72 41 -72 63 0 8 -9 15 -20 15
-11 0 -20 -4 -20 -9 0 -15 -91 -52 -119 -49 -14 1 -31 -1 -38 -5 -14 -9 -50
11 -57 30 -8 19 41 28 69 13 19 -10 31 -9 69 5 45 17 69 35 47 35 -6 0 -11 5
-11 10 0 7 6 7 19 0 28 -15 61 -12 67 5 4 8 14 15 24 15 10 0 31 7 47 17 27
15 30 15 50 -2 12 -10 19 -24 16 -31 -3 -8 0 -14 6 -14 6 0 11 16 11 35 0 38
19 48 27 15 4 -14 14 -20 32 -20 41 0 45 11 14 37 -24 19 -26 22 -8 23 14 0
16 3 7 12 -6 6 -41 12 -76 12 -58 1 -66 3 -76 25 -8 17 -16 22 -31 18 -17 -5
-18 -3 -8 9 9 12 9 13 -3 9 -8 -3 -21 1 -28 10 -7 8 -9 15 -5 15 4 0 2 7 -5
15 -13 15 -5 20 27 16 6 -1 15 3 18 10 5 7 -7 8 -40 3 -38 -5 -47 -4 -43 7 2
8 19 15 36 17 18 2 30 8 27 13 -4 5 11 9 33 9 31 0 41 5 52 25 9 17 10 29 3
36 -15 15 -63 -10 -63 -33 0 -27 -54 -24 -75 5 -15 21 -14 22 5 25 27 4 26 32
-1 32 -12 0 -30 11 -41 25 -11 14 -28 25 -39 25 -11 0 -18 4 -14 10 7 11 -16
50 -30 50 -6 0 -19 -13 -28 -30z"/>
<path d="M2627 7126 c-10 -10 -18 -11 -24 -5 -13 13 -68 -13 -76 -36 -9 -21
-77 -21 -77 0 0 8 -7 15 -15 15 -8 0 -15 -7 -15 -15 0 -9 7 -18 15 -21 23 -9
18 -24 -7 -24 -13 0 -34 12 -47 25 -22 24 -49 26 -35 3 5 -8 1 -9 -12 -3 -84
37 -161 55 -189 47 -16 -6 -23 -10 -13 -11 11 -1 15 -7 11 -21 -5 -17 -11 -19
-41 -14 -25 5 -33 4 -28 -5 4 -6 15 -11 24 -12 11 0 6 -6 -13 -15 -29 -14 -28
-14 32 -10 34 2 67 7 73 11 6 4 34 1 63 -6 l52 -13 -35 -7 c-34 -6 -33 -6 12
-8 26 0 50 4 53 9 10 16 28 12 21 -5 -4 -11 8 -18 45 -30 54 -16 89 -8 89 20
0 8 4 15 9 15 5 0 13 9 16 20 5 15 15 20 43 20 34 1 35 2 18 15 -24 19 -12 35
28 35 30 0 56 15 56 32 0 13 -17 9 -33 -6z"/>
<path d="M7520 7121 c0 -14 9 -21 31 -26 19 -4 29 -12 25 -20 -2 -7 1 -18 7
-25 10 -10 6 -11 -15 -6 -36 8 -35 -4 2 -29 16 -11 30 -26 30 -32 0 -15 -21
-17 -35 -5 -29 25 -125 35 -125 13 1 -17 18 -33 24 -22 13 20 36 12 36 -13 0
-22 -5 -25 -47 -31 -27 -3 -64 -8 -85 -11 -30 -5 -37 -2 -43 15 -3 12 -14 21
-23 21 -12 0 -13 -3 -4 -12 19 -19 14 -25 -24 -33 -27 -5 -41 -2 -54 10 -13
12 -25 14 -42 9 -21 -8 -20 -9 12 -14 l35 -6 -29 -16 c-29 -15 -29 -15 -8 -27
15 -8 28 -9 41 -2 13 7 29 7 52 -1 28 -9 30 -13 16 -23 -14 -10 -14 -15 -1
-40 8 -15 13 -30 11 -32 -2 -1 -19 2 -37 8 -27 10 -30 13 -16 21 25 14 20 38
-8 38 -13 0 -32 3 -42 7 -13 5 -16 3 -11 -10 3 -9 2 -17 -4 -17 -6 0 -16 14
-22 30 -7 19 -19 30 -32 31 -17 1 -16 2 5 9 28 9 27 11 -10 17 -46 8 -91 3
-115 -13 -13 -8 -32 -14 -42 -12 -10 1 -24 -2 -32 -6 -11 -7 -13 -5 -8 7 8 22
-19 36 -63 33 -19 -2 -47 4 -61 12 -26 15 -29 14 -78 -29 -28 -24 -57 -56 -64
-71 -6 -16 -15 -28 -19 -28 -21 0 -4 -19 22 -25 17 -4 28 -10 25 -15 -3 -4
-14 -6 -25 -3 -17 5 -18 2 -10 -26 12 -43 19 -51 36 -44 10 4 17 -2 21 -15 3
-14 21 -26 51 -36 55 -19 53 -19 46 -1 -5 11 1 15 19 15 23 0 36 -13 34 -35
-1 -5 -7 -9 -14 -7 -7 2 -13 -2 -13 -8 0 -14 33 -13 48 2 8 8 12 8 12 1 0 -6
7 -13 14 -16 9 -4 13 -1 11 6 -5 12 65 51 74 41 3 -3 -1 -14 -8 -25 -21 -34
-3 -34 29 -1 17 18 35 32 40 32 6 0 10 5 10 10 0 6 15 10 32 10 l33 0 -29 -26
c-22 -21 -30 -24 -37 -13 -6 11 -11 11 -20 2 -22 -22 13 -39 106 -53 50 -7
106 -13 125 -13 19 1 42 -5 50 -12 21 -18 135 -65 159 -65 11 0 23 5 26 10 9
15 25 12 25 -5 0 -17 12 -19 38 -6 42 21 70 30 117 36 81 9 106 16 99 26 -3 5
0 9 5 9 6 0 11 -5 11 -11 0 -5 5 -7 10 -4 20 13 10 35 -16 35 -21 0 -24 3 -15
14 9 11 7 15 -11 20 -13 3 -34 6 -48 7 -23 0 -23 1 -5 9 l20 9 -20 1 c-11 1
-15 4 -8 6 6 3 30 -4 52 -15 48 -25 99 -27 107 -6 4 8 18 15 33 14 14 0 21 -3
14 -5 -18 -8 4 -60 32 -78 26 -17 83 -20 150 -8 l40 8 -32 19 c-18 11 -33 23
-33 28 0 4 35 5 78 2 52 -5 72 -3 63 3 -8 6 -20 8 -28 5 -7 -3 -13 0 -13 6 0
6 4 11 9 11 5 0 13 9 16 20 3 11 11 20 17 20 6 0 9 -3 5 -6 -7 -7 17 -34 31
-34 6 0 12 7 16 15 4 10 -1 15 -14 15 -28 0 -25 18 5 26 14 3 25 10 25 14 0 5
-14 3 -30 -3 -41 -15 -64 0 -68 44 -4 42 18 75 43 66 12 -5 15 -14 11 -32 -6
-24 -5 -24 56 -23 l63 1 -50 12 c-37 8 -46 13 -35 20 8 5 23 8 33 7 9 -2 17 2
17 7 0 6 -8 11 -17 12 -15 0 -14 3 5 16 12 8 22 20 22 26 0 5 8 15 17 22 14
10 5 15 -58 28 -41 9 -92 18 -114 20 -22 3 -63 14 -92 25 -29 11 -54 17 -57
14 -4 -3 -6 -1 -6 5 0 6 -26 14 -57 17 -65 8 -133 35 -133 54 0 6 -4 12 -10
12 -5 0 -10 8 -10 19 0 14 -10 20 -41 24 -23 3 -45 10 -48 16 -13 20 -56 30
-74 16 -23 -17 -60 -7 -54 14 3 13 -5 17 -40 19 -37 2 -43 0 -43 -17z m164
-87 c9 -23 -2 -54 -19 -54 -8 0 -21 -10 -29 -22 -12 -17 -13 -24 -3 -31 8 -6
4 -7 -10 -4 -13 3 -23 2 -23 -3 0 -13 24 -28 50 -32 23 -3 25 0 22 30 -3 30
-1 33 16 28 17 -6 20 -3 16 16 -2 13 -2 18 1 12 3 -6 19 -8 35 -6 17 2 36 -1
43 -6 7 -6 24 -9 38 -5 23 5 23 5 4 -10 -10 -8 -25 -13 -32 -10 -7 3 -13 1
-13 -5 0 -17 27 -21 59 -9 18 7 30 18 28 27 -3 21 27 19 31 -2 2 -11 -3 -18
-12 -18 -8 0 -31 -13 -49 -30 -19 -16 -41 -30 -48 -30 -8 0 -23 -7 -33 -15
-23 -17 -66 -20 -66 -4 0 5 -10 3 -22 -5 -12 -9 -33 -16 -46 -16 -13 0 -21 -4
-17 -9 6 -11 -1 -16 -37 -25 -23 -5 -28 -3 -28 13 0 11 -6 21 -12 24 -10 4
-10 7 -1 18 11 11 16 9 28 -7 17 -22 17 -22 20 31 2 47 -8 65 -35 58 -24 -6
-27 12 -4 21 9 3 29 6 45 6 18 0 29 5 29 14 0 8 7 17 16 20 10 4 13 13 9 25
-5 18 1 24 36 30 4 0 10 -6 13 -15z"/>
<path d="M1473 6778 c2 -20 -3 -23 -33 -24 -49 -1 -69 -11 -117 -63 -30 -32
-39 -47 -30 -53 18 -12 27 -10 27 6 0 8 7 16 15 20 8 3 14 2 14 -2 -4 -24 3
-33 24 -30 17 2 23 11 25 36 4 36 17 42 27 12 3 -11 11 -20 16 -20 5 0 9 -10
9 -21 0 -20 4 -21 48 -17 60 7 80 1 55 -18 -16 -12 -16 -13 -1 -14 9 0 23 -3
32 -6 10 -4 16 -1 16 9 0 9 5 19 12 23 8 5 9 -3 5 -29 -9 -56 13 -70 118 -79
20 -2 33 -11 40 -26 6 -13 20 -25 33 -29 14 -3 22 -13 22 -27 1 -29 26 -60 44
-53 19 8 28 -3 15 -19 -5 -7 -6 -14 -2 -17 14 -9 67 -10 96 -2 21 6 33 3 45
-9 16 -15 15 -17 -8 -23 -22 -6 -22 -7 -4 -13 10 -4 29 -4 42 1 12 5 22 5 22
0 0 -5 3 -17 7 -27 4 -12 3 -15 -5 -10 -7 4 -12 1 -12 -8 0 -9 9 -16 20 -16
11 0 20 5 20 10 0 16 27 11 34 -6 9 -24 -12 -44 -45 -44 -19 0 -29 5 -29 15 0
8 -12 18 -27 21 -16 4 -44 23 -63 44 -26 27 -50 40 -88 49 -29 7 -52 16 -52
20 0 4 -42 6 -92 5 -51 -1 -79 1 -63 5 67 15 -23 27 -130 17 -27 -2 -85 -5
-128 -7 -43 -1 -80 -6 -83 -10 -3 -5 -13 -5 -22 0 -20 10 -90 3 -98 -10 -3 -5
-14 -9 -24 -9 -10 0 -31 -5 -47 -12 -15 -6 -39 -13 -52 -15 -19 -3 -91 -51
-111 -74 -3 -3 -14 -9 -25 -14 -19 -8 -19 -9 3 -13 13 -2 26 -10 29 -18 3 -8
13 -14 23 -14 10 0 37 -9 61 -20 24 -11 51 -19 59 -19 8 0 10 3 4 5 -18 8 -4
50 27 80 23 22 29 24 29 11 0 -10 12 -22 26 -27 33 -13 36 -13 29 3 -4 6 2 2
13 -10 11 -13 28 -23 36 -23 23 0 67 -30 61 -41 -6 -9 -52 6 -75 25 -8 7 -25
13 -38 14 -20 1 -22 -2 -15 -40 4 -30 3 -39 -5 -34 -7 4 -12 3 -12 -2 0 -15
21 -20 65 -17 40 2 89 -22 108 -52 4 -7 21 -13 37 -13 16 0 32 -5 35 -10 4 -6
11 -8 16 -4 15 9 0 24 -24 24 -18 0 -19 2 -7 10 23 15 50 12 50 -6 0 -8 5 -12
10 -9 6 3 10 -4 10 -17 0 -13 -3 -18 -8 -12 -5 9 -10 8 -19 -1 -10 -11 -8 -14
14 -17 32 -4 44 -28 14 -28 -15 0 -22 -9 -27 -35 -8 -43 -3 -50 25 -35 14 7
21 7 21 0 0 -19 32 -10 37 11 5 16 11 19 32 15 23 -6 24 -5 9 7 -31 24 -21 40
12 21 16 -10 27 -20 25 -22 -8 -9 28 -60 39 -56 6 2 27 -2 47 -9 25 -8 35 -18
33 -30 -1 -9 2 -17 6 -17 5 0 15 -3 24 -6 11 -4 16 -1 16 11 0 12 5 15 20 10
34 -11 22 1 -27 26 -26 13 -58 34 -72 47 -13 12 -28 22 -33 22 -6 0 -21 9 -34
19 l-25 20 22 11 c17 10 20 9 14 0 -6 -10 -1 -12 19 -8 18 4 26 1 26 -9 0 -14
26 -11 80 7 14 5 41 11 60 12 39 3 48 21 13 26 -44 6 -18 32 31 32 13 0 31 -9
41 -20 16 -18 19 -18 48 -4 27 15 29 15 24 0 -7 -19 -6 -19 25 -7 13 5 51 5
88 -1 42 -5 72 -5 85 2 11 5 27 9 35 8 40 -3 62 3 67 21 4 17 13 18 94 13 77
-4 89 -3 89 11 0 9 14 24 30 32 37 19 32 33 -10 27 -19 -3 -30 0 -30 8 0 8
-11 11 -31 8 -25 -4 -32 -1 -40 19 -10 26 -19 29 -38 11 -7 -7 -11 -8 -9 -3 5
15 -39 55 -60 55 -20 0 -56 33 -46 42 3 4 -3 9 -14 12 -11 4 -35 21 -54 39
-69 63 -103 88 -130 94 -15 3 -25 9 -22 14 10 17 -7 49 -27 49 -12 0 -23 10
-30 27 -12 32 -108 133 -126 133 -7 0 -18 9 -25 20 -7 11 -23 20 -36 20 -15 0
-26 7 -29 20 -3 11 -14 20 -24 20 -10 0 -21 5 -24 10 -3 6 -13 10 -21 10 -9 0
-22 7 -30 15 -17 17 -70 20 -79 5 -12 -19 -25 -10 -20 13 8 35 -9 52 -54 52
-23 0 -41 3 -41 7 0 5 -4 8 -10 8 -5 0 -9 -10 -7 -22z"/>
<path d="M4775 6743 c-22 -3 -45 -8 -50 -13 -6 -5 -21 -7 -34 -3 -17 4 -23 1
-28 -16 -6 -25 -7 -25 -43 -4 -26 15 -31 15 -62 0 -34 -17 -27 -21 32 -18 18
1 21 -1 11 -7 -9 -7 9 -12 55 -17 38 -4 63 -10 57 -12 -7 -3 -13 -11 -13 -19
0 -8 -4 -14 -9 -14 -14 0 -23 -32 -11 -44 7 -7 10 -3 10 12 0 17 6 22 25 22
18 0 23 4 19 15 -12 30 25 15 46 -20 12 -19 24 -34 28 -34 20 3 32 -2 27 -11
-9 -15 13 -40 35 -40 9 0 25 -9 35 -20 23 -25 45 -26 45 -2 0 21 18 42 37 42
11 0 11 -5 3 -20 -9 -18 -8 -20 15 -20 14 0 25 -5 25 -11 0 -21 42 -63 63 -64
13 0 22 -6 22 -15 0 -15 76 -70 96 -70 6 0 7 -5 4 -10 -3 -6 1 -13 9 -16 20
-8 46 -61 51 -104 6 -43 11 -47 35 -25 18 16 24 17 41 7 11 -7 30 -10 42 -6
22 7 22 6 4 -14 -18 -20 -18 -21 10 -36 19 -9 34 -11 44 -6 7 5 24 7 36 4 13
-4 23 -1 26 8 2 7 3 5 2 -4 -2 -9 2 -19 9 -21 6 -2 8 -8 4 -12 -4 -4 -14 -2
-23 5 -10 9 -19 9 -27 2 -7 -6 -33 -12 -58 -13 -39 -3 -46 -1 -55 19 -7 17
-18 22 -45 22 -74 0 -106 -23 -50 -35 20 -4 30 -13 30 -25 0 -11 8 -24 18 -30
14 -10 13 -11 -10 -7 -20 3 -28 -1 -31 -15 -5 -16 -9 -18 -26 -9 -11 6 -27 8
-35 5 -12 -5 -15 -2 -9 12 5 14 2 13 -15 -4 -12 -12 -30 -22 -39 -21 -15 0
-14 3 5 16 34 23 29 46 -8 38 -23 -5 -30 -3 -30 8 0 10 -7 13 -20 10 -21 -6
-28 -33 -8 -33 9 0 9 -3 0 -12 -8 -8 -15 -8 -27 2 -8 7 -24 10 -34 7 -11 -3
-22 0 -25 7 -3 7 -5 7 -5 -1 -1 -7 -9 -13 -18 -13 -15 0 -14 -2 2 -14 11 -8
23 -12 28 -9 4 2 16 -6 26 -18 18 -22 19 -22 45 -6 15 10 32 15 38 10 7 -4 25
-6 40 -5 22 2 28 -2 28 -18 0 -11 4 -20 10 -20 5 0 7 -8 3 -17 -5 -15 -3 -16
8 -5 7 6 24 12 37 12 15 0 37 13 54 31 30 31 54 34 52 5 -1 -9 -1 -16 0 -16
38 0 172 25 193 35 15 8 52 15 81 15 28 0 52 5 52 10 0 6 8 10 18 10 35 0 92
21 92 34 0 20 30 28 36 11 7 -18 26 -19 95 -4 47 10 50 12 35 28 -15 14 -18
14 -26 1 -9 -13 -10 -13 -10 0 0 8 -22 26 -50 39 -27 13 -50 27 -50 31 0 4
-15 11 -34 14 -23 5 -41 17 -57 41 -13 19 -31 35 -40 35 -8 0 -26 12 -40 26
-15 16 -30 23 -43 20 -22 -6 -56 19 -56 41 0 7 -6 13 -13 13 -19 0 -50 36 -43
49 4 5 -2 14 -11 20 -14 7 -15 13 -7 21 8 8 14 9 18 1 8 -13 55 -14 74 -2 11
7 10 10 -3 15 -9 3 -24 6 -33 6 -9 0 -29 6 -44 14 -29 15 -40 12 -31 -10 3 -8
0 -14 -7 -14 -6 0 -8 -4 -5 -10 3 -5 -2 -10 -11 -10 -14 0 -15 3 -6 12 18 18
15 26 -17 33 -22 5 -28 11 -24 22 4 10 2 14 -5 9 -6 -3 -13 -2 -17 3 -3 6 -12
8 -20 4 -9 -3 -15 1 -15 11 0 9 -7 16 -15 16 -9 0 -18 7 -22 16 -3 8 -11 13
-18 10 -20 -7 -52 26 -47 49 4 17 2 18 -11 6 -15 -11 -15 -15 -1 -36 9 -13 11
-26 6 -29 -5 -3 -15 8 -22 25 -12 27 -17 30 -43 25 -23 -5 -30 -2 -34 14 -5
20 -33 29 -33 10 0 -5 -11 -10 -24 -10 -26 0 -44 29 -25 41 12 7 4 29 -10 29
-4 0 -12 -12 -19 -27 -8 -19 -10 -21 -6 -5 4 17 1 22 -13 22 -11 0 -24 5 -31
12 -10 10 -19 8 -43 -6 -26 -15 -33 -16 -40 -5 -5 8 -9 20 -9 27 0 6 -6 12
-14 12 -8 0 -20 1 -28 3 -7 2 -31 2 -53 0z"/>
<path d="M9067 6391 c-36 -8 -68 -25 -37 -21 33 5 50 -1 75 -25 34 -35 32 -48
-5 -27 -16 9 -30 23 -30 30 0 17 -37 15 -44 -3 -6 -18 -37 -20 -33 -3 1 7 -9
14 -23 16 -21 3 -22 2 -11 -12 12 -14 10 -16 -13 -16 -16 0 -29 -7 -33 -17 -4
-10 -12 -22 -20 -26 -20 -12 -15 -29 7 -22 16 5 20 2 20 -15 0 -12 -4 -19 -9
-16 -5 3 -14 -1 -21 -9 -7 -8 -21 -15 -31 -15 -11 0 -19 -4 -19 -10 0 -5 -7
-7 -15 -4 -8 4 -15 1 -15 -5 0 -6 -7 -11 -16 -11 -11 0 -14 -5 -10 -16 3 -9 6
-17 6 -20 0 -2 14 -1 30 3 26 5 30 3 30 -16 0 -18 3 -20 19 -10 11 8 16 19 13
31 -4 16 -1 17 22 8 40 -15 74 -12 86 8 9 14 11 14 7 1 -10 -30 95 -56 106
-26 3 9 7 9 19 -1 18 -14 43 -7 70 20 16 16 16 18 2 18 -13 0 -14 3 -5 14 7 8
20 12 31 9 13 -3 28 5 44 23 29 33 29 34 16 54 -9 13 -12 13 -21 -2 -12 -22
-26 -23 -45 -3 -10 9 -26 13 -42 10 l-27 -5 25 11 c73 32 75 34 75 69 l-1 35
-69 2 c-39 0 -87 -2 -108 -6z"/>
<path d="M6420 6265 c0 -8 -6 -15 -12 -16 -7 0 -4 -4 7 -9 18 -8 17 -9 -7 -9
-16 -1 -37 8 -48 19 -13 13 -21 16 -26 8 -4 -7 -2 -14 4 -16 7 -2 12 -10 12
-18 0 -9 11 -14 35 -14 32 0 35 -2 35 -31 0 -16 4 -28 9 -25 5 3 16 -5 25 -19
9 -14 22 -25 29 -25 7 0 30 -9 52 -20 22 -11 45 -20 52 -20 8 0 18 -11 22 -24
7 -18 19 -24 57 -30 26 -3 52 -10 58 -15 33 -26 88 -50 103 -44 16 6 16 5 5
-9 -11 -14 -10 -20 7 -37 12 -12 21 -24 21 -28 0 -5 20 -8 45 -8 47 0 68 -15
58 -42 -8 -20 -23 -16 -23 7 0 18 -5 20 -32 15 -23 -4 -45 0 -71 14 -35 18
-36 20 -15 24 15 3 11 5 -12 5 -19 0 -48 3 -65 6 -28 6 102 -63 223 -119 54
-25 54 -25 59 -4 4 15 11 19 27 15 11 -3 29 -6 39 -6 9 0 17 -5 17 -11 0 -6
-9 -8 -20 -4 -28 9 -25 -9 5 -29 15 -10 25 -12 25 -6 0 6 5 8 11 4 8 -5 8 -9
-1 -14 -9 -6 -9 -13 -1 -29 7 -11 15 -21 20 -21 12 0 101 -89 101 -101 0 -22
-22 -50 -36 -45 -8 3 -14 2 -14 -2 0 -4 -35 -9 -78 -10 -42 -2 -82 -8 -87 -12
-6 -5 -35 -9 -65 -9 -105 1 -145 -5 -148 -21 -2 -10 12 -20 39 -30 43 -15 68
-43 31 -33 -11 2 -31 -2 -43 -10 -15 -9 -52 -15 -99 -16 -41 -1 -106 -2 -145
-4 -58 -2 -73 1 -85 16 -18 21 -50 14 -50 -12 -1 -14 -3 -13 -15 3 -13 17 -15
18 -15 3 0 -18 -25 -23 -35 -7 -9 14 -36 12 -34 -2 4 -31 -2 -47 -15 -42 -7 3
-16 -2 -20 -11 -3 -9 -10 -14 -15 -10 -6 3 -15 -4 -21 -15 -9 -17 -8 -20 11
-20 16 0 20 -5 16 -19 -4 -17 -1 -17 37 -6 29 9 48 9 63 2 16 -7 27 -6 38 3
13 11 18 11 24 2 6 -9 15 -8 40 4 37 18 42 16 35 -11 -4 -17 -14 -20 -60 -20
-32 0 -60 -5 -66 -12 -7 -9 -7 -13 0 -13 5 0 15 -13 20 -29 12 -34 37 -50 78
-51 16 0 48 -1 72 -3 31 -3 45 1 52 12 7 13 13 14 28 4 16 -9 26 -7 58 12 24
15 47 22 61 18 13 -3 31 -2 40 2 30 13 42 14 40 2 -3 -16 56 -43 61 -29 2 7
17 12 33 12 28 0 42 24 18 32 -5 2 -7 11 -4 21 8 19 43 15 82 -9 20 -12 21
-17 11 -34 -7 -11 -21 -20 -30 -20 -10 0 -18 -4 -18 -9 0 -16 70 6 89 28 10
12 27 21 38 21 10 0 24 5 31 12 7 7 12 8 12 2 0 -5 -5 -15 -12 -22 -11 -11 -3
-15 29 -11 4 0 10 -7 13 -17 7 -20 50 -30 61 -13 12 21 48 -9 55 -46 6 -34 7
-35 43 -29 20 3 51 13 70 22 41 19 90 17 105 -4 10 -12 17 -13 41 -4 16 6 38
20 47 30 10 10 26 23 35 29 10 5 15 13 11 16 -4 4 -22 -2 -41 -14 -43 -26 -51
-26 -81 0 -34 29 -24 55 27 67 22 6 44 9 49 6 4 -3 20 1 35 9 73 38 82 41 108
29 29 -13 31 -24 9 -43 -12 -10 -20 -10 -35 -1 -25 16 -28 15 -22 -8 4 -15 0
-20 -13 -20 -15 0 -16 -2 -5 -9 9 -6 24 -5 39 0 14 6 31 7 39 5 7 -3 29 3 47
14 32 17 99 40 136 45 8 1 22 5 30 8 8 4 33 8 55 10 l40 3 -32 13 c-45 18 -42
34 5 25 34 -7 36 -6 23 10 -11 12 -11 20 -3 28 8 8 13 7 18 -6 9 -23 34 -2 34
29 0 45 9 54 41 43 16 -5 29 -14 29 -19 0 -5 12 -3 27 4 21 9 27 9 31 -1 2 -6
12 -12 22 -12 9 0 23 -7 30 -15 13 -16 60 -21 60 -6 0 5 -7 14 -15 21 -8 7
-15 18 -15 24 0 7 -13 25 -30 41 -16 16 -30 24 -30 19 0 -6 -19 -18 -41 -28
-42 -19 -49 -17 -62 19 -3 6 -16 0 -30 -13 -18 -17 -27 -20 -32 -11 -5 8 -4
10 3 5 7 -4 12 -1 12 7 0 8 -10 18 -22 22 -17 5 -19 8 -8 12 22 8 50 35 50 47
0 7 -14 17 -32 24 -25 9 -34 9 -40 -1 -6 -9 -15 -8 -40 5 -55 27 -69 30 -183
38 -151 11 -213 26 -257 61 -20 16 -41 29 -47 29 -6 0 -25 9 -43 20 -18 11
-40 20 -48 20 -8 0 -20 10 -25 22 -6 12 -25 27 -44 33 -37 12 -53 34 -27 36
29 3 34 4 42 12 4 4 -2 7 -13 7 -23 0 -45 11 -110 53 -24 15 -54 27 -67 27
-27 0 -43 15 -27 25 18 10 0 35 -25 35 -14 0 -27 7 -30 15 -3 8 -19 21 -35 29
-19 10 -27 11 -23 3 4 -7 -4 -2 -18 11 -13 12 -27 20 -30 17 -11 -11 -78 24
-78 40 0 11 -7 15 -22 13 -17 -2 -24 3 -26 20 -4 23 -16 29 -27 12 -4 -6 -15
-8 -25 -5 -12 4 -26 -2 -39 -16 -17 -18 -21 -19 -21 -7 0 9 6 18 13 21 24 9
-10 29 -57 34 -25 3 -51 12 -57 19 -15 18 -37 18 -56 -1 -19 -19 -39 -9 -22
12 10 12 10 16 -2 24 -22 13 -27 11 -31 -13 -4 -30 -36 -34 -68 -8 -23 18 -23
20 -5 21 13 0 8 5 -15 13 -19 7 -35 18 -35 24 0 15 -6 18 -42 25 -25 5 -33 3
-33 -8z"/>
<path d="M405 6209 c-61 -14 -64 -15 -70 -21 -4 -3 3 -9 15 -13 15 -5 26 -1
35 11 12 17 14 15 20 -19 9 -44 3 -52 -42 -62 -27 -5 -34 -2 -48 19 -19 29
-35 34 -35 11 0 -9 -9 -15 -22 -16 -22 0 -22 -1 2 -10 20 -8 22 -12 10 -19 -8
-5 -15 -15 -15 -22 0 -7 -8 -12 -18 -10 -9 2 -17 -2 -17 -8 0 -5 5 -10 11 -10
6 0 8 -9 4 -20 -4 -11 -2 -20 4 -20 6 0 10 -9 8 -19 -1 -11 3 -19 8 -18 6 1 9
8 9 15 -1 6 3 12 10 12 6 0 2 7 -9 16 -17 12 -18 16 -5 24 9 6 20 5 30 -4 31
-25 70 -37 91 -26 31 17 22 29 -16 23 -43 -7 -57 17 -29 48 18 20 18 20 44
-11 25 -30 50 -40 50 -20 0 6 -8 10 -17 10 -15 0 -16 2 -3 10 10 6 11 10 3 10
-8 0 -5 8 7 20 11 11 24 20 28 20 8 0 52 54 52 63 0 3 -9 7 -20 10 -13 3 -18
10 -14 21 7 18 0 18 -61 5z"/>
<path d="M2864 6185 c-4 -11 -16 -13 -48 -9 -27 4 -55 1 -79 -9 -40 -17 -45
-28 -22 -51 8 -8 15 -18 15 -23 0 -4 12 -19 26 -32 32 -30 26 -46 -16 -47 -19
0 -35 -5 -38 -12 -5 -17 23 -42 48 -42 12 0 31 -5 43 -11 12 -7 35 -12 52 -13
23 -1 31 -6 33 -23 3 -18 12 -23 50 -29 26 -3 53 -13 60 -22 11 -15 13 -14 18
6 11 39 40 26 35 -16 -2 -9 11 -11 51 -6 51 5 54 4 65 -22 7 -15 10 -31 7 -35
-3 -5 7 -15 22 -21 16 -7 38 -22 49 -33 12 -11 45 -39 73 -63 29 -24 52 -48
52 -53 0 -6 9 -22 20 -36 11 -14 20 -39 20 -54 0 -16 5 -29 11 -29 8 0 8 -4 0
-14 -10 -11 -9 -16 5 -24 11 -6 13 -11 5 -16 -6 -4 -14 0 -17 8 -8 20 -54 21
-54 2 0 -27 73 -43 105 -22 13 9 26 11 31 6 14 -14 157 10 170 28 9 12 26 14
90 8 44 -4 87 -4 96 -1 9 4 19 22 22 41 8 38 29 45 46 15 6 -13 17 -17 30 -14
18 5 25 -5 21 -29 0 -5 9 -8 22 -8 13 0 29 -6 35 -12 10 -10 15 -10 22 2 7 10
10 11 10 3 0 -7 9 -13 19 -13 11 0 23 -5 26 -10 3 -6 17 -7 31 -4 24 6 34 -9
14 -21 -15 -9 -2 -25 14 -19 8 3 17 0 21 -5 3 -6 11 -9 16 -6 5 4 9 -1 9 -9 0
-11 8 -13 35 -9 29 5 38 1 60 -26 17 -19 36 -31 51 -31 15 0 24 -6 24 -15 0
-21 17 -19 37 4 20 24 33 18 33 -15 0 -16 8 -28 25 -36 14 -6 25 -15 25 -19 0
-4 9 -10 19 -14 10 -3 31 -17 45 -32 24 -23 24 -27 10 -38 -15 -11 -15 -12 1
-19 11 -4 22 0 30 10 8 11 14 13 19 6 3 -6 2 -13 -4 -17 -6 -4 -8 -11 -4 -16
4 -6 13 -4 24 6 11 10 20 12 24 6 4 -5 2 -12 -4 -16 -5 -3 -10 -10 -10 -15 0
-16 151 -110 176 -110 7 0 18 -9 24 -19 14 -27 13 -34 -5 -27 -21 8 -45 -3
-45 -21 0 -7 -6 -13 -12 -12 -27 3 -38 -2 -38 -16 0 -14 -29 -35 -48 -35 -5 0
-1 19 10 43 15 31 26 43 41 43 11 -1 22 4 24 11 3 7 -22 15 -66 23 -39 6 -90
21 -113 32 -25 12 -67 22 -103 23 -33 1 -72 6 -86 10 -17 4 -38 1 -56 -8 -18
-10 -68 -17 -133 -20 -58 -2 -139 -12 -180 -21 -97 -22 -210 -73 -203 -92 3
-8 11 -14 19 -14 16 0 77 -60 69 -68 -3 -3 -14 3 -25 13 -10 9 -26 15 -33 12
-19 -7 -26 -60 -10 -76 17 -15 17 -31 0 -31 -20 0 -51 -37 -38 -45 6 -3 16 -3
21 0 10 6 11 5 15 -33 1 -12 5 -25 8 -28 3 -3 2 -17 -3 -29 -8 -21 -5 -24 20
-30 17 -4 32 -11 35 -16 11 -17 33 -9 38 14 4 12 13 31 21 42 15 20 15 20 9
-2 -4 -17 -1 -23 11 -23 9 0 16 -7 16 -15 0 -18 -12 -19 -27 -4 -8 8 -13 2
-18 -21 -4 -19 -3 -36 4 -43 6 -6 11 -8 11 -3 0 4 7 0 16 -8 8 -9 30 -16 48
-16 19 0 39 -6 46 -14 6 -8 24 -16 38 -18 19 -2 27 -9 27 -23 0 -15 6 -19 23
-17 29 4 73 -24 66 -41 -4 -10 3 -12 26 -9 32 5 36 12 20 43 -9 15 -7 19 5 19
9 0 18 -12 22 -31 4 -19 10 -28 19 -25 7 3 22 -7 34 -22 l21 -27 -3 25 c-3 21
1 25 22 22 14 -1 34 -4 44 -5 13 -1 21 7 27 27 7 26 6 28 -17 23 -18 -3 -27 0
-31 12 -2 9 -9 24 -14 34 -7 13 -5 19 8 24 10 3 51 19 91 35 87 34 87 34 68 6
-22 -32 -20 -45 4 -23 16 15 25 16 44 7 21 -9 29 -7 58 18 18 16 40 30 48 30
13 0 13 1 0 10 -20 13 -8 13 26 0 21 -8 24 -14 16 -22 -20 -20 -13 -26 33 -24
27 1 45 6 45 13 0 22 19 24 57 7 32 -14 63 -20 118 -24 26 -2 102 14 119 26
19 13 46 8 58 -10 4 -6 15 -6 33 2 14 7 39 12 55 12 35 0 38 9 9 33 -17 15
-18 21 -8 33 6 8 9 17 6 21 -9 9 41 45 53 38 17 -11 11 -37 -10 -42 -24 -6
-24 -3 -4 -41 18 -37 52 -43 72 -12 7 12 18 20 25 19 49 -6 78 2 89 26 17 38
-12 57 -80 52 -41 -3 -52 -1 -48 10 3 7 1 13 -4 13 -5 0 -29 14 -53 30 -25 17
-53 30 -63 30 -11 0 -25 4 -33 9 -18 12 -24 48 -9 57 7 4 -2 13 -23 24 -19 9
-33 22 -31 30 2 7 -2 17 -9 21 -7 4 -12 24 -13 44 -1 44 21 62 57 44 l22 -11
-21 21 c-20 21 -23 21 -62 8 -39 -14 -42 -13 -42 4 0 10 -22 40 -49 66 -43 43
-48 52 -43 82 4 31 3 32 -16 22 -16 -9 -24 -6 -46 21 -14 18 -26 37 -26 42 0
6 -23 21 -50 33 -38 17 -50 28 -50 44 0 26 -26 48 -57 49 -33 0 -102 39 -120
67 -9 14 -45 38 -80 55 -65 31 -74 41 -47 56 14 8 14 11 2 23 -8 8 -25 35 -38
61 -27 55 -38 61 -97 52 -32 -5 -47 -12 -53 -28 -12 -31 -46 -60 -55 -46 -4 7
-27 10 -54 9 -26 -1 -54 1 -62 6 -7 5 -45 11 -84 12 -139 5 -187 14 -217 41
-13 10 -21 12 -30 4 -15 -12 -67 -11 -87 2 -7 5 -19 24 -27 42 -13 32 -34 46
-34 24 0 -24 -29 -7 -35 20 -4 19 -13 30 -23 30 -19 1 -52 23 -52 35 0 12 -33
34 -53 35 -11 0 -20 10 -23 30 -5 21 -12 30 -26 30 -11 0 -36 14 -55 30 -18
17 -39 30 -46 30 -8 0 -26 14 -43 31 -20 21 -36 29 -51 26 -14 -2 -29 3 -39
14 -10 11 -23 19 -31 19 -7 0 -16 7 -19 15 -4 8 -13 15 -22 15 -19 0 -85 22
-92 31 -10 13 -83 39 -109 39 -14 0 -35 7 -45 15 -25 19 -55 19 -62 0z"/>
<path d="M17 6099 c-15 -9 -17 -27 -17 -147 l0 -137 30 -1 c30 -1 39 9 20 21
-15 9 -12 25 5 25 8 0 19 8 24 19 13 23 51 35 51 16 0 -8 -10 -17 -22 -21 -21
-6 -37 -21 -38 -34 0 -3 14 -7 32 -8 17 -2 37 -7 44 -13 15 -12 134 -1 134 12
0 5 -4 9 -8 9 -19 0 -64 48 -57 60 5 9 4 11 -3 6 -7 -4 -12 -14 -12 -23 0 -9
-3 -13 -7 -10 -3 4 -15 0 -25 -10 -10 -9 -21 -13 -25 -10 -3 4 5 17 18 29 22
21 23 26 12 48 -7 14 -19 23 -25 22 -7 -2 -27 -6 -45 -8 -26 -3 -31 -1 -27 11
4 8 14 15 24 15 30 0 35 21 9 42 l-24 18 25 22 25 21 -29 -7 c-23 -6 -27 -4
-23 8 7 19 3 20 -25 5 -18 -9 -19 -8 -13 10 7 23 -1 26 -28 10z"/>
<path d="M2847 5490 c-27 -29 -60 -39 -71 -21 -4 5 -18 6 -34 2 -21 -6 -27
-13 -25 -34 2 -30 -25 -41 -45 -17 -9 10 -15 11 -18 4 -11 -26 -119 7 -119 36
0 8 -6 15 -12 15 -14 0 -14 -3 -6 -35 3 -13 14 -20 29 -20 13 0 24 -4 24 -9 0
-9 32 -23 60 -26 23 -3 53 -17 68 -32 7 -6 19 -10 28 -6 13 5 13 8 -2 24 -10
11 -15 20 -13 22 2 1 15 11 28 22 21 17 24 18 18 3 -3 -10 -2 -20 2 -23 5 -3
7 -15 4 -26 -4 -14 0 -25 11 -31 9 -5 14 -13 11 -18 -3 -5 3 -14 14 -19 27
-15 34 -14 27 4 -6 18 7 19 32 4 15 -9 33 -7 83 9 35 11 121 30 191 43 120 22
156 39 83 39 -19 0 -37 5 -41 11 -9 15 -53 2 -87 -27 -20 -17 -37 -24 -52 -20
-12 3 -25 3 -29 -1 -4 -4 -12 -8 -19 -9 -7 -1 -24 -5 -39 -9 -31 -8 -33 -4
-17 27 16 29 -4 47 -29 25 -9 -9 -37 -19 -60 -23 -34 -5 -42 -4 -42 9 0 8 6
18 13 20 6 3 -1 6 -18 7 -28 1 -27 2 23 27 41 21 52 31 49 45 -6 22 6 23 27 3
8 -8 25 -15 38 -15 20 0 18 3 -12 18 l-35 17 30 6 c30 7 30 7 -6 8 -28 1 -41
-6 -62 -29z"/>
<path d="M6033 4697 c-10 -16 -11 -103 -1 -114 14 -17 28 -16 28 2 0 22 27 18
40 -5 6 -11 20 -20 31 -20 24 0 42 -42 37 -87 -2 -17 0 -29 4 -27 4 3 26 -5
49 -16 34 -18 46 -19 71 -11 38 14 48 14 48 1 0 -5 -6 -10 -13 -10 -7 0 -18
-9 -25 -20 -10 -17 -10 -20 3 -20 8 0 15 5 15 11 0 5 5 7 11 4 6 -4 8 -9 6
-12 -3 -2 6 -16 19 -30 21 -22 29 -48 25 -75 0 -4 15 0 34 9 38 18 45 16 48
-16 1 -11 5 -21 9 -21 5 0 1 -11 -8 -25 -16 -25 -16 -25 13 -19 25 5 31 2 36
-16 4 -17 11 -21 27 -17 45 12 129 -44 175 -115 21 -34 45 -36 45 -5 0 13 6
32 14 43 14 18 15 17 30 -18 9 -21 16 -47 16 -59 0 -15 4 -19 16 -15 34 13 62
-5 87 -58 29 -60 67 -87 97 -68 27 16 41 15 70 -8 14 -11 35 -20 47 -20 12 0
25 -4 28 -10 3 -5 25 -10 47 -10 27 0 45 -6 54 -17 12 -16 13 -16 14 -2 0 9
15 23 33 30 42 17 63 38 76 73 6 15 20 30 30 33 22 6 36 43 16 43 -7 0 -26
-15 -43 -34 -16 -19 -38 -36 -48 -38 -11 -2 -20 -13 -22 -24 -2 -12 -14 -26
-28 -33 -22 -10 -28 -8 -52 18 -15 16 -38 34 -52 41 -24 13 -24 13 -3 21 11 4
24 13 28 19 4 6 18 15 31 20 13 5 24 17 24 26 0 11 -5 14 -16 10 -9 -3 -29 -6
-45 -6 -20 0 -27 -4 -23 -14 3 -9 -5 -22 -21 -32 -25 -16 -26 -16 -55 12 -16
16 -30 37 -30 47 0 12 -6 17 -17 15 -10 -2 -18 -12 -18 -23 0 -14 -6 -19 -20
-16 -60 10 -70 43 -17 51 17 3 42 14 54 25 13 11 30 23 38 27 13 6 12 7 -1 7
-9 1 -20 8 -23 17 -4 11 -14 14 -35 9 -16 -3 -40 -3 -54 0 -23 6 -25 10 -16
33 7 18 7 28 0 30 -6 2 -11 10 -11 18 0 17 -52 32 -58 16 -6 -20 -42 -13 -68
13 -14 14 -29 25 -33 25 -17 0 -20 44 -5 61 17 19 5 33 -21 23 -10 -4 -21 -1
-26 7 -7 11 -12 12 -29 2 -28 -18 -30 -17 -30 17 0 41 -28 96 -42 82 -10 -10
-37 -6 -48 7 -10 12 -50 31 -64 31 -8 0 -43 29 -77 64 -34 36 -67 62 -74 60
-7 -3 -16 -1 -20 5 -11 19 -38 13 -32 -8 4 -17 0 -18 -37 -13 -43 5 -56 15
-56 46 0 12 5 16 15 12 17 -6 48 21 39 36 -4 6 -10 6 -17 -1 -15 -15 -90 -14
-106 2 -13 13 -130 17 -138 4z"/>
<path d="M2666 4213 c-10 -10 -7 -57 5 -92 10 -28 15 -31 40 -26 45 10 71 -10
69 -53 -3 -53 -1 -59 13 -59 6 0 29 -7 50 -16 31 -13 37 -21 32 -36 -3 -11 -1
-22 5 -26 5 -3 10 -1 10 4 0 6 7 11 15 11 17 0 35 59 24 80 -5 9 -1 22 9 33
14 15 14 20 2 27 -20 12 -30 3 -30 -26 0 -13 -4 -24 -9 -24 -5 0 -17 -3 -27
-7 -12 -4 -15 -3 -10 6 5 8 1 14 -13 18 -24 6 -28 23 -6 23 9 0 20 12 25 26
14 35 13 44 -5 44 -8 0 -15 -4 -15 -10 0 -5 -11 -10 -25 -10 -23 0 -25 3 -21
35 3 26 1 35 -10 35 -8 0 -22 4 -32 9 -9 5 -30 15 -47 22 -16 7 -33 14 -36 16
-3 1 -9 0 -13 -4z"/>
<path d="M4503 4096 c-4 -8 -26 -16 -48 -18 -37 -3 -40 -5 -43 -35 -3 -27 0
-33 16 -33 30 0 43 -22 26 -44 -8 -11 -14 -26 -14 -33 0 -16 52 -17 68 -1 9 9
16 7 32 -10 12 -12 31 -22 44 -22 13 0 29 -7 36 -15 9 -10 9 -15 1 -15 -19 0
-12 -17 10 -23 34 -9 12 -26 -26 -20 -33 5 -35 4 -33 -18 3 -25 34 -56 45 -45
4 3 1 6 -6 6 -7 0 -9 5 -6 10 8 12 55 13 55 1 0 -5 9 -11 20 -14 17 -4 20 0
20 29 0 23 -6 37 -20 44 -11 6 -20 21 -20 35 0 17 -7 25 -27 30 -16 4 -39 20
-52 37 -22 27 -23 31 -8 40 9 5 17 16 17 23 0 14 -10 17 -70 20 -20 1 -24 6
-22 25 1 12 10 28 19 35 11 8 12 14 5 19 -6 3 -14 0 -19 -8z"/>
<path d="M7884 4025 c-11 -8 -26 -15 -34 -15 -20 0 -26 -50 -6 -50 8 0 21 11
30 25 9 14 24 25 32 25 14 0 15 -2 3 -17 -8 -9 -13 -19 -11 -22 1 -3 -5 -14
-13 -24 -21 -24 -15 -51 10 -55 34 -5 69 -37 61 -57 -5 -14 -15 -17 -51 -13
-38 5 -45 3 -45 -12 0 -25 -25 -43 -50 -35 -22 7 -50 -9 -50 -30 0 -8 23 -15
65 -20 64 -6 65 -7 65 -36 0 -16 4 -29 9 -29 19 0 22 21 7 45 -19 29 -21 85
-3 85 29 0 57 -31 57 -63 0 -51 11 -77 30 -77 27 0 50 28 50 60 0 16 8 45 17
65 18 37 20 38 111 35 52 -1 70 13 32 25 -14 4 -20 15 -20 34 0 36 -8 43 -33
30 -16 -9 -24 -6 -44 15 -21 23 -30 26 -59 20 l-35 -6 6 35 c4 19 3 37 -3 41
-16 9 -35 -22 -30 -48 3 -16 0 -27 -10 -31 -21 -8 -33 14 -26 51 5 25 1 34
-19 47 -21 14 -27 14 -43 2z"/>
<path d="M7491 3827 c-13 -20 -34 -40 -47 -43 -13 -3 -26 -15 -29 -25 -4 -10
-15 -19 -26 -19 -10 0 -19 -6 -19 -13 0 -8 -11 -24 -25 -37 -30 -28 -33 -60
-5 -67 11 -3 20 -9 20 -12 0 -4 13 -6 30 -3 21 3 32 0 36 -12 3 -9 10 -16 15
-16 13 0 11 24 -6 56 -14 28 -21 74 -10 74 3 0 14 -4 25 -10 11 -5 29 -14 40
-20 40 -20 56 -11 51 27 -1 7 3 22 9 33 11 21 7 24 -37 21 -31 -3 -37 15 -13
39 12 12 20 30 18 43 -4 20 -6 18 -27 -16z"/>
<path d="M4855 3750 c-3 -6 3 -23 14 -39 28 -39 29 -101 1 -101 -23 0 -87 53
-95 81 -5 14 -16 19 -43 20 -20 0 -46 4 -57 8 -21 9 -45 4 -45 -9 0 -4 9 -10
20 -13 11 -3 20 -10 20 -16 0 -16 -36 -13 -71 5 -17 8 -33 13 -36 11 -5 -5 17
-48 30 -58 10 -8 12 -60 3 -81 -12 -26 16 -23 40 3 19 21 19 22 -3 36 -28 19
-29 33 -3 33 11 0 23 6 26 14 6 17 46 28 68 20 26 -10 18 -24 -14 -24 -23 0
-30 -4 -30 -20 0 -14 7 -20 23 -20 16 0 23 -6 24 -20 1 -15 -4 -20 -23 -20
-15 0 -24 -6 -24 -15 0 -9 -9 -15 -23 -15 -14 0 -24 -6 -24 -15 0 -11 13 -15
51 -15 54 0 80 11 81 32 2 31 27 66 46 61 10 -3 19 -9 19 -13 0 -9 91 -1 105
10 22 16 65 20 84 8 11 -7 23 -9 27 -5 11 11 -32 47 -55 47 -15 0 -23 9 -29
32 -6 25 -15 34 -43 41 -43 11 -45 13 -29 32 10 13 9 15 -8 15 -12 0 -24 -5
-27 -10z"/>
<path d="M4978 3548 c18 -18 15 -28 -8 -28 -11 0 -20 -5 -20 -11 0 -6 7 -8 16
-5 21 8 74 -24 74 -45 0 -29 -26 -28 -53 1 -15 15 -37 30 -49 32 -13 3 -31 9
-40 13 -13 5 -18 3 -18 -9 0 -9 6 -16 14 -16 7 0 23 -13 36 -30 12 -16 27 -28
33 -27 5 1 14 -13 19 -30 10 -38 18 -41 36 -13 16 26 52 26 59 1 7 -29 30 -33
71 -14 21 10 39 18 42 18 15 1 79 52 76 60 -1 6 -21 9 -43 7 -27 -2 -45 2 -56
12 -17 18 -57 22 -57 6 0 -18 -28 -10 -43 13 -24 37 -69 77 -85 77 -13 0 -13
-3 -4 -12z"/>
<path d="M4860 3320 c0 -24 -4 -30 -21 -30 -11 0 -17 5 -14 10 9 14 -38 30
-86 30 -33 0 -40 -3 -37 -17 2 -10 12 -17 22 -16 11 1 25 -5 32 -12 8 -7 23
-11 33 -8 12 3 27 -2 36 -11 20 -20 39 -20 55 -1 16 19 34 20 27 1 -9 -22 27
-29 68 -15 26 10 35 19 35 36 0 27 -33 47 -64 39 -13 -3 -31 1 -42 9 -30 23
-44 18 -44 -15z"/>
</g>
</svg>
